<svg width="24" height="24" viewBox="0 0 24 24" fill="none" xmlns="http://www.w3.org/2000/svg">
<path d="M15 2H9C8.44772 2 8 2.44772 8 3V5C8 5.55228 8.44772 6 9 6H15C15.5523 6 16 5.55228 16 5V3C16 2.44772 15.5523 2 15 2Z" stroke="#161B68" stroke-width="2" stroke-linecap="round" stroke-linejoin="round"/>
<path d="M16 4H18C18.5304 4 19.0391 4.21071 19.4142 4.58579C19.7893 4.96086 20 5.46957 20 6V20C20 20.5304 19.7893 21.0391 19.4142 21.4142C19.0391 21.7893 18.5304 22 18 22H12.5" stroke="#161B68" stroke-width="2" stroke-linecap="round" stroke-linejoin="round"/>
<path d="M4 13.5V6C4 5.46957 4.21071 4.96086 4.58579 4.58579C4.96086 4.21071 5.46957 4 6 4H8" stroke="#161B68" stroke-width="2" stroke-linecap="round" stroke-linejoin="round"/>
<path d="M13.378 15.626C13.5752 15.4288 13.7317 15.1946 13.8384 14.9369C13.9452 14.6792 14.0001 14.4029 14.0001 14.124C14.0001 13.845 13.9452 13.5688 13.8384 13.3111C13.7317 13.0534 13.5752 12.8192 13.378 12.622C13.1807 12.4248 12.9466 12.2683 12.6889 12.1615C12.4311 12.0548 12.1549 11.9998 11.876 11.9998C11.597 11.9998 11.3208 12.0548 11.0631 12.1615C10.8054 12.2683 10.5712 12.4248 10.374 12.622L5.36398 17.634C5.12622 17.8716 4.9522 18.1653 4.85798 18.488L4.02098 21.358C3.99588 21.444 3.99437 21.5353 4.01662 21.6221C4.03887 21.7089 4.08404 21.7882 4.14742 21.8515C4.2108 21.9149 4.29006 21.9601 4.37689 21.9824C4.46372 22.0046 4.55493 22.0031 4.64098 21.978L7.51098 21.141C7.83364 21.0468 8.12735 20.8727 8.36498 20.635L13.378 15.626Z" stroke="#161B68" stroke-width="2" stroke-linecap="round" stroke-linejoin="round"/>
</svg>
