<svg width="154" height="39" viewBox="0 0 154 39" fill="none" xmlns="http://www.w3.org/2000/svg">
<path d="M48.397 18.6734C48.397 19.3241 48.2477 19.9214 47.949 20.4654C47.6504 20.9988 47.1917 21.4308 46.573 21.7614C45.9544 22.0921 45.1864 22.2574 44.269 22.2574H42.573V26.2894H39.837V15.0574H44.269C45.165 15.0574 45.9224 15.2121 46.541 15.5214C47.1597 15.8308 47.6237 16.2574 47.933 16.8014C48.2424 17.3454 48.397 17.9694 48.397 18.6734ZM44.061 20.0814C44.5837 20.0814 44.973 19.9588 45.229 19.7134C45.485 19.4681 45.613 19.1214 45.613 18.6734C45.613 18.2254 45.485 17.8788 45.229 17.6334C44.973 17.3881 44.5837 17.2654 44.061 17.2654H42.573V20.0814H44.061ZM52.5574 18.8494C52.8774 18.3588 53.2774 17.9748 53.7574 17.6974C54.2374 17.4094 54.7707 17.2654 55.3574 17.2654V20.1614H54.6054C53.9227 20.1614 53.4107 20.3108 53.0694 20.6094C52.7281 20.8974 52.5574 21.4094 52.5574 22.1454V26.2894H49.8214V17.3614H52.5574V18.8494ZM60.7292 26.4174C59.8545 26.4174 59.0652 26.2308 58.3612 25.8574C57.6678 25.4841 57.1185 24.9508 56.7132 24.2574C56.3185 23.5641 56.1212 22.7534 56.1212 21.8254C56.1212 20.9081 56.3238 20.1028 56.7292 19.4094C57.1345 18.7054 57.6892 18.1668 58.3932 17.7934C59.0972 17.4201 59.8865 17.2334 60.7612 17.2334C61.6358 17.2334 62.4252 17.4201 63.1292 17.7934C63.8332 18.1668 64.3878 18.7054 64.7932 19.4094C65.1985 20.1028 65.4012 20.9081 65.4012 21.8254C65.4012 22.7428 65.1932 23.5534 64.7772 24.2574C64.3718 24.9508 63.8118 25.4841 63.0972 25.8574C62.3932 26.2308 61.6038 26.4174 60.7292 26.4174ZM60.7292 24.0494C61.2518 24.0494 61.6945 23.8574 62.0572 23.4734C62.4305 23.0894 62.6172 22.5401 62.6172 21.8254C62.6172 21.1108 62.4358 20.5614 62.0732 20.1774C61.7212 19.7934 61.2838 19.6014 60.7612 19.6014C60.2278 19.6014 59.7852 19.7934 59.4332 20.1774C59.0812 20.5508 58.9052 21.1001 58.9052 21.8254C58.9052 22.5401 59.0758 23.0894 59.4172 23.4734C59.7692 23.8574 60.2065 24.0494 60.7292 24.0494ZM72.2927 17.2654C73.338 17.2654 74.17 17.6068 74.7887 18.2894C75.418 18.9614 75.7327 19.8894 75.7327 21.0734V26.2894H73.0127V21.4414C73.0127 20.8441 72.858 20.3801 72.5487 20.0494C72.2393 19.7188 71.8233 19.5534 71.3007 19.5534C70.778 19.5534 70.362 19.7188 70.0527 20.0494C69.7433 20.3801 69.5887 20.8441 69.5887 21.4414V26.2894H66.8527V17.3614H69.5887V18.5454C69.866 18.1508 70.2393 17.8414 70.7087 17.6174C71.178 17.3828 71.706 17.2654 72.2927 17.2654ZM82.6099 23.9694V26.2894H81.2179C80.2259 26.2894 79.4526 26.0494 78.8979 25.5694C78.3432 25.0788 78.0659 24.2841 78.0659 23.1854V19.6334H76.9779V17.3614H78.0659V15.1854H80.8019V17.3614H82.5939V19.6334H80.8019V23.2174C80.8019 23.4841 80.8659 23.6761 80.9939 23.7934C81.1219 23.9108 81.3352 23.9694 81.6339 23.9694H82.6099ZM88.1979 26.4174C87.3232 26.4174 86.5339 26.2308 85.8299 25.8574C85.1366 25.4841 84.5872 24.9508 84.1819 24.2574C83.7872 23.5641 83.5899 22.7534 83.5899 21.8254C83.5899 20.9081 83.7926 20.1028 84.1979 19.4094C84.6032 18.7054 85.1579 18.1668 85.8619 17.7934C86.5659 17.4201 87.3552 17.2334 88.2299 17.2334C89.1046 17.2334 89.8939 17.4201 90.5979 17.7934C91.3019 18.1668 91.8566 18.7054 92.2619 19.4094C92.6672 20.1028 92.8699 20.9081 92.8699 21.8254C92.8699 22.7428 92.6619 23.5534 92.2459 24.2574C91.8406 24.9508 91.2806 25.4841 90.5659 25.8574C89.8619 26.2308 89.0726 26.4174 88.1979 26.4174ZM88.1979 24.0494C88.7206 24.0494 89.1632 23.8574 89.5259 23.4734C89.8992 23.0894 90.0859 22.5401 90.0859 21.8254C90.0859 21.1108 89.9046 20.5614 89.5419 20.1774C89.1899 19.7934 88.7526 19.6014 88.2299 19.6014C87.6966 19.6014 87.2539 19.7934 86.9019 20.1774C86.5499 20.5508 86.3739 21.1001 86.3739 21.8254C86.3739 22.5401 86.5446 23.0894 86.8859 23.4734C87.2379 23.8574 87.6752 24.0494 88.1979 24.0494ZM103.44 26.2894L101.104 22.0494H100.448V26.2894H97.712V15.0574H102.304C103.189 15.0574 103.941 15.2121 104.56 15.5214C105.189 15.8308 105.659 16.2574 105.968 16.8014C106.277 17.3348 106.432 17.9321 106.432 18.5934C106.432 19.3401 106.219 20.0068 105.792 20.5934C105.376 21.1801 104.757 21.5961 103.936 21.8414L106.528 26.2894H103.44ZM100.448 20.1134H102.144C102.645 20.1134 103.019 19.9908 103.264 19.7454C103.52 19.5001 103.648 19.1534 103.648 18.7054C103.648 18.2788 103.52 17.9428 103.264 17.6974C103.019 17.4521 102.645 17.3294 102.144 17.3294H100.448V20.1134ZM116.566 21.6814C116.566 21.9374 116.55 22.2041 116.518 22.4814H110.326C110.368 23.0361 110.544 23.4628 110.854 23.7614C111.174 24.0494 111.563 24.1934 112.022 24.1934C112.704 24.1934 113.179 23.9054 113.446 23.3294H116.358C116.208 23.9161 115.936 24.4441 115.542 24.9134C115.158 25.3828 114.672 25.7508 114.086 26.0174C113.499 26.2841 112.843 26.4174 112.118 26.4174C111.243 26.4174 110.464 26.2308 109.782 25.8574C109.099 25.4841 108.566 24.9508 108.182 24.2574C107.798 23.5641 107.606 22.7534 107.606 21.8254C107.606 20.8974 107.792 20.0868 108.166 19.3934C108.55 18.7001 109.083 18.1668 109.766 17.7934C110.448 17.4201 111.232 17.2334 112.118 17.2334C112.982 17.2334 113.75 17.4148 114.422 17.7774C115.094 18.1401 115.616 18.6574 115.99 19.3294C116.374 20.0014 116.566 20.7854 116.566 21.6814ZM113.766 20.9614C113.766 20.4921 113.606 20.1188 113.286 19.8414C112.966 19.5641 112.566 19.4254 112.086 19.4254C111.627 19.4254 111.238 19.5588 110.918 19.8254C110.608 20.0921 110.416 20.4708 110.342 20.9614H113.766ZM117.465 21.8254C117.465 20.8974 117.652 20.0868 118.025 19.3934C118.409 18.7001 118.937 18.1668 119.609 17.7934C120.292 17.4201 121.07 17.2334 121.945 17.2334C123.065 17.2334 123.998 17.5268 124.745 18.1134C125.502 18.7001 125.998 19.5268 126.233 20.5934H123.321C123.076 19.9108 122.601 19.5694 121.897 19.5694C121.396 19.5694 120.996 19.7668 120.697 20.1614C120.398 20.5454 120.249 21.1001 120.249 21.8254C120.249 22.5508 120.398 23.1108 120.697 23.5054C120.996 23.8894 121.396 24.0814 121.897 24.0814C122.601 24.0814 123.076 23.7401 123.321 23.0574H126.233C125.998 24.1028 125.502 24.9241 124.745 25.5214C123.988 26.1188 123.054 26.4174 121.945 26.4174C121.07 26.4174 120.292 26.2308 119.609 25.8574C118.937 25.4841 118.409 24.9508 118.025 24.2574C117.652 23.5641 117.465 22.7534 117.465 21.8254ZM129.072 16.4334C128.592 16.4334 128.198 16.2948 127.888 16.0174C127.59 15.7294 127.44 15.3774 127.44 14.9614C127.44 14.5348 127.59 14.1828 127.888 13.9054C128.198 13.6174 128.592 13.4734 129.072 13.4734C129.542 13.4734 129.926 13.6174 130.224 13.9054C130.534 14.1828 130.688 14.5348 130.688 14.9614C130.688 15.3774 130.534 15.7294 130.224 16.0174C129.926 16.2948 129.542 16.4334 129.072 16.4334ZM130.432 17.3614V26.2894H127.696V17.3614H130.432ZM136.895 19.6334H135.423V26.2894H132.687V19.6334H131.695V17.3614H132.687V17.1054C132.687 16.0068 133.002 15.1748 133.631 14.6094C134.26 14.0334 135.183 13.7454 136.399 13.7454C136.602 13.7454 136.751 13.7508 136.847 13.7614V16.0814C136.324 16.0494 135.956 16.1241 135.743 16.3054C135.53 16.4868 135.423 16.8121 135.423 17.2814V17.3614H136.895V19.6334ZM146.597 21.6814C146.597 21.9374 146.581 22.2041 146.549 22.4814H140.357C140.399 23.0361 140.575 23.4628 140.885 23.7614C141.205 24.0494 141.594 24.1934 142.053 24.1934C142.735 24.1934 143.21 23.9054 143.477 23.3294H146.389C146.239 23.9161 145.967 24.4441 145.573 24.9134C145.189 25.3828 144.703 25.7508 144.117 26.0174C143.53 26.2841 142.874 26.4174 142.149 26.4174C141.274 26.4174 140.495 26.2308 139.813 25.8574C139.13 25.4841 138.597 24.9508 138.213 24.2574C137.829 23.5641 137.637 22.7534 137.637 21.8254C137.637 20.8974 137.823 20.0868 138.197 19.3934C138.581 18.7001 139.114 18.1668 139.797 17.7934C140.479 17.4201 141.263 17.2334 142.149 17.2334C143.013 17.2334 143.781 17.4148 144.453 17.7774C145.125 18.1401 145.647 18.6574 146.021 19.3294C146.405 20.0014 146.597 20.7854 146.597 21.6814ZM143.797 20.9614C143.797 20.4921 143.637 20.1188 143.317 19.8414C142.997 19.5641 142.597 19.4254 142.117 19.4254C141.658 19.4254 141.269 19.5588 140.949 19.8254C140.639 20.0921 140.447 20.4708 140.373 20.9614H143.797Z" fill="#2B318A"/>
<path fill-rule="evenodd" clip-rule="evenodd" d="M8.2477 6.43118C8.2477 4.72552 8.92305 3.08973 10.1252 1.88364C11.3273 0.677564 12.9577 -5.32775e-06 14.6578 -5.32775e-06C16.3578 -5.32775e-06 17.9882 0.677564 19.1904 1.88364C20.3925 3.08973 21.0678 4.72552 21.0678 6.43118C21.0678 8.13683 20.3925 9.77263 19.1904 10.9787C17.9882 12.1848 16.3578 12.8624 14.6578 12.8624C12.9577 12.8624 11.3273 12.1848 10.1252 10.9787C8.92305 9.77263 8.2477 8.13683 8.2477 6.43118ZM2.04808 16.9655C3.35292 15.7228 5.08346 15.0299 6.88262 15.0299C8.68179 15.0299 10.4123 15.7228 11.7172 16.9655L11.7449 16.9933L14.6578 19.9158L17.5734 16.9933L17.6011 16.9655C18.9057 15.7244 20.6351 15.0325 22.4329 15.0325C24.2307 15.0325 25.9601 15.7244 27.2647 16.9655C27.912 17.5825 28.4275 18.3251 28.7801 19.1481C29.1326 19.971 29.3148 20.8573 29.3156 21.7531C29.3164 22.6489 29.1357 23.5355 28.7846 24.3591C28.4335 25.1827 27.9192 25.9261 27.273 26.5443L15.6213 37.9065C15.3629 38.1585 15.0168 38.2995 14.6564 38.2995C14.296 38.2995 13.9498 38.1585 13.6914 37.9065L2.04254 26.5443C1.39658 25.9264 0.882457 25.1832 0.531346 24.36C0.180235 23.5368 -0.000544072 22.6505 -2.62289e-05 21.7551C0.000491614 20.8597 0.182296 19.9736 0.534359 19.1508C0.886422 18.328 1.40141 17.5827 2.04808 16.9655Z" fill="#2B318A"/>
</svg>
