<svg width="19" height="19" viewBox="0 0 19 19" fill="none" xmlns="http://www.w3.org/2000/svg">
<g clip-path="url(#clip0_236_268)">
<path d="M9.5 11.875C10.8117 11.875 11.875 10.8117 11.875 9.5C11.875 8.18832 10.8117 7.125 9.5 7.125C8.18832 7.125 7.125 8.18832 7.125 9.5C7.125 10.8117 8.18832 11.875 9.5 11.875Z" stroke="#161B68" stroke-width="2" stroke-linecap="round" stroke-linejoin="round"/>
<path d="M15.3584 11.875C15.253 12.1137 15.2216 12.3786 15.2682 12.6354C15.3147 12.8922 15.4372 13.1292 15.6197 13.3158L15.6672 13.3633C15.8144 13.5103 15.9312 13.685 16.0108 13.8772C16.0905 14.0694 16.1315 14.2754 16.1315 14.4835C16.1315 14.6916 16.0905 14.8976 16.0108 15.0898C15.9312 15.282 15.8144 15.4567 15.6672 15.6037C15.5201 15.7509 15.3455 15.8677 15.1533 15.9474C14.9611 16.0271 14.755 16.0681 14.547 16.0681C14.3389 16.0681 14.1328 16.0271 13.9406 15.9474C13.7484 15.8677 13.5738 15.7509 13.4267 15.6037L13.3792 15.5562C13.1927 15.3737 12.9557 15.2513 12.6989 15.2047C12.4421 15.1581 12.1772 15.1896 11.9384 15.295C11.7043 15.3953 11.5046 15.5619 11.3639 15.7743C11.2232 15.9867 11.1478 16.2356 11.1467 16.4904V16.625C11.1467 17.0449 10.9799 17.4476 10.683 17.7445C10.3861 18.0415 9.98334 18.2083 9.56341 18.2083C9.14349 18.2083 8.74076 18.0415 8.44383 17.7445C8.1469 17.4476 7.98008 17.0449 7.98008 16.625V16.5537C7.97395 16.2917 7.88913 16.0375 7.73665 15.8243C7.58417 15.6112 7.37108 15.4488 7.12508 15.3583C6.8863 15.2529 6.62143 15.2215 6.36462 15.268C6.1078 15.3146 5.87083 15.437 5.68425 15.6195L5.63675 15.667C5.4897 15.8143 5.31508 15.931 5.12286 16.0107C4.93065 16.0904 4.72461 16.1314 4.51654 16.1314C4.30846 16.1314 4.10243 16.0904 3.91022 16.0107C3.718 15.931 3.54338 15.8143 3.39633 15.667C3.24912 15.52 3.13233 15.3454 3.05265 15.1532C2.97297 14.9609 2.93196 14.7549 2.93196 14.5468C2.93196 14.3388 2.97297 14.1327 3.05265 13.9405C3.13233 13.7483 3.24912 13.5737 3.39633 13.4266L3.44383 13.3791C3.62634 13.1925 3.74877 12.9556 3.79533 12.6988C3.8419 12.4419 3.81046 12.1771 3.70508 11.9383C3.60473 11.7041 3.4381 11.5044 3.2257 11.3638C3.0133 11.2231 2.76441 11.1476 2.50966 11.1466H2.37508C1.95516 11.1466 1.55243 10.9798 1.2555 10.6829C0.958563 10.3859 0.791748 9.98322 0.791748 9.56329C0.791748 9.14337 0.958563 8.74064 1.2555 8.44371C1.55243 8.14677 1.95516 7.97996 2.37508 7.97996H2.44633C2.70837 7.97383 2.9625 7.88901 3.17569 7.73653C3.38888 7.58405 3.55127 7.37096 3.64175 7.12496C3.74713 6.88618 3.77857 6.62131 3.732 6.36449C3.68544 6.10768 3.56301 5.8707 3.3805 5.68413L3.333 5.63663C3.18579 5.48958 3.069 5.31495 2.98932 5.12274C2.90964 4.93053 2.86863 4.72449 2.86863 4.51642C2.86863 4.30834 2.90964 4.10231 2.98932 3.9101C3.069 3.71788 3.18579 3.54326 3.333 3.39621C3.48005 3.249 3.65467 3.13221 3.84688 3.05253C4.0391 2.97285 4.24513 2.93184 4.45321 2.93184C4.66128 2.93184 4.86731 2.97285 5.05953 3.05253C5.25174 3.13221 5.42637 3.249 5.57341 3.39621L5.62091 3.44371C5.80749 3.62622 6.04447 3.74865 6.30128 3.79521C6.55809 3.84178 6.82297 3.81034 7.06175 3.70496H7.12508C7.35923 3.60461 7.55893 3.43797 7.69959 3.22558C7.84025 3.01318 7.91573 2.76429 7.91675 2.50954V2.37496C7.91675 1.95503 8.08356 1.55231 8.3805 1.25537C8.67743 0.958441 9.08015 0.791626 9.50008 0.791626C9.92001 0.791626 10.3227 0.958441 10.6197 1.25537C10.9166 1.55231 11.0834 1.95503 11.0834 2.37496V2.44621C11.0844 2.70096 11.1599 2.94985 11.3006 3.16224C11.4412 3.37464 11.6409 3.54127 11.8751 3.64163C12.1139 3.74701 12.3787 3.77844 12.6355 3.73188C12.8924 3.68531 13.1293 3.56288 13.3159 3.38038L13.3634 3.33288C13.5105 3.18566 13.6851 3.06888 13.8773 2.9892C14.0695 2.90952 14.2755 2.86851 14.4836 2.86851C14.6917 2.86851 14.8977 2.90952 15.0899 2.9892C15.2822 3.06888 15.4568 3.18566 15.6038 3.33288C15.751 3.47992 15.8678 3.65455 15.9475 3.84676C16.0272 4.03898 16.0682 4.24501 16.0682 4.45308C16.0682 4.66116 16.0272 4.86719 15.9475 5.05941C15.8678 5.25162 15.751 5.42624 15.6038 5.57329L15.5563 5.62079C15.3738 5.80737 15.2514 6.04435 15.2048 6.30116C15.1583 6.55797 15.1897 6.82285 15.2951 7.06163V7.12496C15.3954 7.35911 15.5621 7.55881 15.7745 7.69947C15.9869 7.84013 16.2357 7.91561 16.4905 7.91663H16.6251C17.045 7.91663 17.4477 8.08344 17.7447 8.38037C18.0416 8.67731 18.2084 9.08003 18.2084 9.49996C18.2084 9.91988 18.0416 10.3226 17.7447 10.6195C17.4477 10.9165 17.045 11.0833 16.6251 11.0833H16.5538C16.2991 11.0843 16.0502 11.1598 15.8378 11.3005C15.6254 11.4411 15.4588 11.6408 15.3584 11.875Z" stroke="#161B68" stroke-width="2" stroke-linecap="round" stroke-linejoin="round"/>
<path d="M15.3582 11.8748C15.2528 12.1136 15.2214 12.3785 15.2679 12.6353C15.3145 12.8921 15.4369 13.1291 15.6194 13.3157L15.6669 13.3632C15.8141 13.5102 15.9309 13.6848 16.0106 13.8771C16.0903 14.0693 16.1313 14.2753 16.1313 14.4834C16.1313 14.6915 16.0903 14.8975 16.0106 15.0897C15.9309 15.2819 15.8141 15.4565 15.6669 15.6036C15.5199 15.7508 15.3452 15.8676 15.153 15.9473C14.9608 16.0269 14.7548 16.068 14.5467 16.068C14.3386 16.068 14.1326 16.0269 13.9404 15.9473C13.7482 15.8676 13.5736 15.7508 13.4265 15.6036L13.379 15.5561C13.1924 15.3736 12.9554 15.2511 12.6986 15.2046C12.4418 15.158 12.1769 15.1895 11.9382 15.2948C11.704 15.3952 11.5043 15.5618 11.3637 15.7742C11.223 15.9866 11.1475 16.2355 11.1465 16.4903V16.6248C11.1465 17.0448 10.9797 17.4475 10.6828 17.7444C10.3858 18.0414 9.9831 18.2082 9.56317 18.2082C9.14324 18.2082 8.74052 18.0414 8.44358 17.7444C8.14665 17.4475 7.97984 17.0448 7.97984 16.6248V16.5536C7.97371 16.2915 7.88889 16.0374 7.73641 15.8242C7.58393 15.611 7.37084 15.4486 7.12484 15.3582C6.88606 15.2528 6.62118 15.2214 6.36437 15.2679C6.10756 15.3145 5.87058 15.4369 5.684 15.6194L5.6365 15.6669C5.48945 15.8141 5.31483 15.9309 5.12262 16.0106C4.9304 16.0903 4.72437 16.1313 4.5163 16.1313C4.30822 16.1313 4.10219 16.0903 3.90997 16.0106C3.71776 15.9309 3.54314 15.8141 3.39609 15.6669C3.24887 15.5199 3.13209 15.3452 3.05241 15.153C2.97273 14.9608 2.93172 14.7548 2.93172 14.5467C2.93172 14.3386 2.97273 14.1326 3.05241 13.9404C3.13209 13.7482 3.24887 13.5736 3.39609 13.4265L3.44359 13.379C3.6261 13.1924 3.74853 12.9554 3.79509 12.6986C3.84166 12.4418 3.81022 12.1769 3.70484 11.9382C3.60448 11.704 3.43785 11.5043 3.22546 11.3637C3.01306 11.223 2.76417 11.1475 2.50942 11.1465H2.37484C1.95491 11.1465 1.55218 10.9797 1.25525 10.6828C0.958319 10.3858 0.791504 9.9831 0.791504 9.56317C0.791504 9.14324 0.958319 8.74052 1.25525 8.44358C1.55218 8.14665 1.95491 7.97984 2.37484 7.97984H2.44609C2.70812 7.97371 2.96226 7.88889 3.17545 7.73641C3.38864 7.58393 3.55103 7.37084 3.6415 7.12484C3.74689 6.88606 3.77832 6.62118 3.73176 6.36437C3.68519 6.10756 3.56276 5.87058 3.38025 5.684L3.33275 5.6365C3.18554 5.48945 3.06876 5.31483 2.98908 5.12262C2.9094 4.9304 2.86838 4.72437 2.86838 4.5163C2.86838 4.30822 2.9094 4.10219 2.98908 3.90997C3.06876 3.71776 3.18554 3.54314 3.33275 3.39609C3.4798 3.24887 3.65443 3.13209 3.84664 3.05241C4.03885 2.97273 4.24489 2.93172 4.45296 2.93172C4.66104 2.93172 4.86707 2.97273 5.05928 3.05241C5.2515 3.13209 5.42612 3.24887 5.57317 3.39609L5.62067 3.44359C5.80725 3.6261 6.04422 3.74853 6.30104 3.79509C6.55785 3.84166 6.82272 3.81022 7.0615 3.70484H7.12484C7.35899 3.60448 7.55868 3.43785 7.69934 3.22546C7.84 3.01306 7.91549 2.76417 7.9165 2.50942V2.37484C7.9165 1.95491 8.08332 1.55218 8.38025 1.25525C8.67718 0.958319 9.07991 0.791504 9.49984 0.791504C9.91976 0.791504 10.3225 0.958319 10.6194 1.25525C10.9164 1.55218 11.0832 1.95491 11.0832 2.37484V2.44609C11.0842 2.70083 11.1597 2.94973 11.3003 3.16212C11.441 3.37452 11.6407 3.54115 11.8748 3.6415C12.1136 3.74689 12.3785 3.77832 12.6353 3.73176C12.8921 3.68519 13.1291 3.56276 13.3157 3.38025L13.3632 3.33275C13.5102 3.18554 13.6848 3.06876 13.8771 2.98908C14.0693 2.9094 14.2753 2.86838 14.4834 2.86838C14.6915 2.86838 14.8975 2.9094 15.0897 2.98908C15.2819 3.06876 15.4565 3.18554 15.6036 3.33275C15.7508 3.4798 15.8676 3.65443 15.9473 3.84664C16.0269 4.03885 16.068 4.24489 16.068 4.45296C16.068 4.66104 16.0269 4.86707 15.9473 5.05928C15.8676 5.2515 15.7508 5.42612 15.6036 5.57317L15.5561 5.62067C15.3736 5.80725 15.2511 6.04422 15.2046 6.30104C15.158 6.55785 15.1895 6.82272 15.2948 7.0615V7.12484C15.3952 7.35899 15.5618 7.55868 15.7742 7.69934C15.9866 7.84 16.2355 7.91549 16.4903 7.9165H16.6248C17.0448 7.9165 17.4475 8.08332 17.7444 8.38025C18.0414 8.67718 18.2082 9.07991 18.2082 9.49984C18.2082 9.91976 18.0414 10.3225 17.7444 10.6194C17.4475 10.9164 17.0448 11.0832 16.6248 11.0832H16.5536C16.2988 11.0842 16.0499 11.1597 15.8376 11.3003C15.6252 11.441 15.4585 11.6407 15.3582 11.8748Z" stroke="#161B68" stroke-width="2" stroke-linecap="round" stroke-linejoin="round"/>
<path d="M15.3582 11.8748C15.2528 12.1136 15.2214 12.3785 15.2679 12.6353C15.3145 12.8921 15.4369 13.1291 15.6194 13.3157L15.6669 13.3632C15.8141 13.5102 15.9309 13.6848 16.0106 13.8771C16.0903 14.0693 16.1313 14.2753 16.1313 14.4834C16.1313 14.6915 16.0903 14.8975 16.0106 15.0897C15.9309 15.2819 15.8141 15.4565 15.6669 15.6036C15.5199 15.7508 15.3452 15.8676 15.153 15.9473C14.9608 16.0269 14.7548 16.068 14.5467 16.068C14.3386 16.068 14.1326 16.0269 13.9404 15.9473C13.7482 15.8676 13.5736 15.7508 13.4265 15.6036L13.379 15.5561C13.1924 15.3736 12.9554 15.2511 12.6986 15.2046C12.4418 15.158 12.1769 15.1895 11.9382 15.2948C11.704 15.3952 11.5043 15.5618 11.3637 15.7742C11.223 15.9866 11.1475 16.2355 11.1465 16.4903V16.6248C11.1465 17.0448 10.9797 17.4475 10.6828 17.7444C10.3858 18.0414 9.9831 18.2082 9.56317 18.2082C9.14324 18.2082 8.74052 18.0414 8.44358 17.7444C8.14665 17.4475 7.97984 17.0448 7.97984 16.6248V16.5536C7.97371 16.2915 7.88889 16.0374 7.73641 15.8242C7.58393 15.611 7.37084 15.4486 7.12484 15.3582C6.88606 15.2528 6.62118 15.2214 6.36437 15.2679C6.10756 15.3145 5.87058 15.4369 5.684 15.6194L5.6365 15.6669C5.48945 15.8141 5.31483 15.9309 5.12262 16.0106C4.9304 16.0903 4.72437 16.1313 4.5163 16.1313C4.30822 16.1313 4.10219 16.0903 3.90997 16.0106C3.71776 15.9309 3.54314 15.8141 3.39609 15.6669C3.24887 15.5199 3.13209 15.3452 3.05241 15.153C2.97273 14.9608 2.93172 14.7548 2.93172 14.5467C2.93172 14.3386 2.97273 14.1326 3.05241 13.9404C3.13209 13.7482 3.24887 13.5736 3.39609 13.4265L3.44359 13.379C3.6261 13.1924 3.74853 12.9554 3.79509 12.6986C3.84166 12.4418 3.81022 12.1769 3.70484 11.9382C3.60448 11.704 3.43785 11.5043 3.22546 11.3637C3.01306 11.223 2.76417 11.1475 2.50942 11.1465H2.37484C1.95491 11.1465 1.55218 10.9797 1.25525 10.6828C0.958319 10.3858 0.791504 9.9831 0.791504 9.56317C0.791504 9.14324 0.958319 8.74052 1.25525 8.44358C1.55218 8.14665 1.95491 7.97984 2.37484 7.97984H2.44609C2.70812 7.97371 2.96226 7.88889 3.17545 7.73641C3.38864 7.58393 3.55103 7.37084 3.6415 7.12484C3.74689 6.88606 3.77832 6.62118 3.73176 6.36437C3.68519 6.10756 3.56276 5.87058 3.38025 5.684L3.33275 5.6365C3.18554 5.48945 3.06876 5.31483 2.98908 5.12262C2.9094 4.9304 2.86838 4.72437 2.86838 4.5163C2.86838 4.30822 2.9094 4.10219 2.98908 3.90997C3.06876 3.71776 3.18554 3.54314 3.33275 3.39609C3.4798 3.24887 3.65443 3.13209 3.84664 3.05241C4.03885 2.97273 4.24489 2.93172 4.45296 2.93172C4.66104 2.93172 4.86707 2.97273 5.05928 3.05241C5.2515 3.13209 5.42612 3.24887 5.57317 3.39609L5.62067 3.44359C5.80725 3.6261 6.04422 3.74853 6.30104 3.79509C6.55785 3.84166 6.82272 3.81022 7.0615 3.70484H7.12484C7.35899 3.60448 7.55868 3.43785 7.69934 3.22546C7.84 3.01306 7.91549 2.76417 7.9165 2.50942V2.37484C7.9165 1.95491 8.08332 1.55218 8.38025 1.25525C8.67718 0.958319 9.07991 0.791504 9.49984 0.791504C9.91976 0.791504 10.3225 0.958319 10.6194 1.25525C10.9164 1.55218 11.0832 1.95491 11.0832 2.37484V2.44609C11.0842 2.70083 11.1597 2.94973 11.3003 3.16212C11.441 3.37452 11.6407 3.54115 11.8748 3.6415C12.1136 3.74689 12.3785 3.77832 12.6353 3.73176C12.8921 3.68519 13.1291 3.56276 13.3157 3.38025L13.3632 3.33275C13.5102 3.18554 13.6848 3.06876 13.8771 2.98908C14.0693 2.9094 14.2753 2.86838 14.4834 2.86838C14.6915 2.86838 14.8975 2.9094 15.0897 2.98908C15.2819 3.06876 15.4565 3.18554 15.6036 3.33275C15.7508 3.4798 15.8676 3.65443 15.9473 3.84664C16.0269 4.03885 16.068 4.24489 16.068 4.45296C16.068 4.66104 16.0269 4.86707 15.9473 5.05928C15.8676 5.2515 15.7508 5.42612 15.6036 5.57317L15.5561 5.62067C15.3736 5.80725 15.2511 6.04422 15.2046 6.30104C15.158 6.55785 15.1895 6.82272 15.2948 7.0615V7.12484C15.3952 7.35899 15.5618 7.55868 15.7742 7.69934C15.9866 7.84 16.2355 7.91549 16.4903 7.9165H16.6248C17.0448 7.9165 17.4475 8.08332 17.7444 8.38025C18.0414 8.67718 18.2082 9.07991 18.2082 9.49984C18.2082 9.91976 18.0414 10.3225 17.7444 10.6194C17.4475 10.9164 17.0448 11.0832 16.6248 11.0832H16.5536C16.2988 11.0842 16.0499 11.1597 15.8376 11.3003C15.6252 11.441 15.4585 11.6407 15.3582 11.8748Z" stroke="#161B68" stroke-width="2" stroke-linecap="round" stroke-linejoin="round"/>
</g>
<defs>
<clipPath id="clip0_236_268">
<rect width="19" height="19" fill="white"/>
</clipPath>
</defs>
</svg>
