<svg width="281" height="70" viewBox="0 0 281 70" fill="none" xmlns="http://www.w3.org/2000/svg">
<path d="M70.4188 57.278L67.6798 65H65.3258L62.5868 57.278H64.5888L66.5028 63.108L68.4278 57.278H70.4188ZM73.9989 65.088C73.3976 65.088 72.8549 64.9597 72.3709 64.703C71.8943 64.4463 71.5166 64.0797 71.2379 63.603C70.9666 63.1263 70.8309 62.569 70.8309 61.931C70.8309 61.3003 70.9703 60.7467 71.2489 60.27C71.5276 59.786 71.9089 59.4157 72.3929 59.159C72.8769 58.9023 73.4196 58.774 74.0209 58.774C74.6223 58.774 75.1649 58.9023 75.6489 59.159C76.1329 59.4157 76.5143 59.786 76.7929 60.27C77.0716 60.7467 77.2109 61.3003 77.2109 61.931C77.2109 62.5617 77.0679 63.119 76.7819 63.603C76.5033 64.0797 76.1183 64.4463 75.6269 64.703C75.1429 64.9597 74.6003 65.088 73.9989 65.088ZM73.9989 63.46C74.3583 63.46 74.6626 63.328 74.9119 63.064C75.1686 62.8 75.2969 62.4223 75.2969 61.931C75.2969 61.4397 75.1723 61.062 74.9229 60.798C74.6809 60.534 74.3803 60.402 74.0209 60.402C73.6543 60.402 73.3499 60.534 73.1079 60.798C72.8659 61.0547 72.7449 61.4323 72.7449 61.931C72.7449 62.4223 72.8623 62.8 73.0969 63.064C73.3389 63.328 73.6396 63.46 73.9989 63.46ZM77.8349 61.931C77.8349 61.293 77.9632 60.7357 78.2199 60.259C78.4839 59.7823 78.8469 59.4157 79.3089 59.159C79.7782 58.9023 80.3135 58.774 80.9149 58.774C81.6849 58.774 82.3265 58.9757 82.8399 59.379C83.3605 59.7823 83.7015 60.3507 83.8629 61.084H81.8609C81.6922 60.6147 81.3659 60.38 80.8819 60.38C80.5372 60.38 80.2622 60.5157 80.0569 60.787C79.8515 61.051 79.7489 61.4323 79.7489 61.931C79.7489 62.4297 79.8515 62.8147 80.0569 63.086C80.2622 63.35 80.5372 63.482 80.8819 63.482C81.3659 63.482 81.6922 63.2473 81.8609 62.778H83.8629C83.7015 63.4967 83.3605 64.0613 82.8399 64.472C82.3192 64.8827 81.6775 65.088 80.9149 65.088C80.3135 65.088 79.7782 64.9597 79.3089 64.703C78.8469 64.4463 78.4839 64.0797 78.2199 63.603C77.9632 63.1263 77.8349 62.569 77.8349 61.931ZM90.655 61.832C90.655 62.008 90.644 62.1913 90.622 62.382H86.365C86.3943 62.7633 86.5153 63.0567 86.728 63.262C86.948 63.46 87.2157 63.559 87.531 63.559C88.0003 63.559 88.3267 63.361 88.51 62.965H90.512C90.4093 63.3683 90.2223 63.7313 89.951 64.054C89.687 64.3767 89.3533 64.6297 88.95 64.813C88.5467 64.9963 88.0957 65.088 87.597 65.088C86.9957 65.088 86.4603 64.9597 85.991 64.703C85.5217 64.4463 85.155 64.0797 84.891 63.603C84.627 63.1263 84.495 62.569 84.495 61.931C84.495 61.293 84.6233 60.7357 84.88 60.259C85.144 59.7823 85.5107 59.4157 85.98 59.159C86.4493 58.9023 86.9883 58.774 87.597 58.774C88.191 58.774 88.719 58.8987 89.181 59.148C89.643 59.3973 90.0023 59.753 90.259 60.215C90.523 60.677 90.655 61.216 90.655 61.832ZM88.73 61.337C88.73 61.0143 88.62 60.7577 88.4 60.567C88.18 60.3763 87.905 60.281 87.575 60.281C87.2597 60.281 86.992 60.3727 86.772 60.556C86.5593 60.7393 86.4273 60.9997 86.376 61.337H88.73ZM87.575 57.498L85.87 58.4V57.102L87.575 56.233L89.28 57.102V58.4L87.575 57.498ZM97.7184 58.796C98.4371 58.796 99.0091 59.0307 99.4344 59.5C99.8671 59.962 100.083 60.6 100.083 61.414V65H98.2134V61.667C98.2134 61.2563 98.1071 60.9373 97.8944 60.71C97.6817 60.4827 97.3957 60.369 97.0364 60.369C96.6771 60.369 96.3911 60.4827 96.1784 60.71C95.9657 60.9373 95.8594 61.2563 95.8594 61.667V65H93.9784V58.862H95.8594V59.676C96.0501 59.4047 96.3067 59.192 96.6294 59.038C96.9521 58.8767 97.3151 58.796 97.7184 58.796ZM104.184 65.088C103.583 65.088 103.04 64.9597 102.556 64.703C102.08 64.4463 101.702 64.0797 101.423 63.603C101.152 63.1263 101.016 62.569 101.016 61.931C101.016 61.3003 101.156 60.7467 101.434 60.27C101.713 59.786 102.094 59.4157 102.578 59.159C103.062 58.9023 103.605 58.774 104.206 58.774C104.808 58.774 105.35 58.9023 105.834 59.159C106.318 59.4157 106.7 59.786 106.978 60.27C107.257 60.7467 107.396 61.3003 107.396 61.931C107.396 62.5617 107.253 63.119 106.967 63.603C106.689 64.0797 106.304 64.4463 105.812 64.703C105.328 64.9597 104.786 65.088 104.184 65.088ZM104.184 63.46C104.544 63.46 104.848 63.328 105.097 63.064C105.354 62.8 105.482 62.4223 105.482 61.931C105.482 61.4397 105.358 61.062 105.108 60.798C104.866 60.534 104.566 60.402 104.206 60.402C103.84 60.402 103.535 60.534 103.293 60.798C103.051 61.0547 102.93 61.4323 102.93 61.931C102.93 62.4223 103.048 62.8 103.282 63.064C103.524 63.328 103.825 63.46 104.184 63.46ZM110.351 61.931C110.351 61.293 110.48 60.7357 110.736 60.259C111 59.7823 111.363 59.4157 111.825 59.159C112.295 58.9023 112.83 58.774 113.431 58.774C114.201 58.774 114.843 58.9757 115.356 59.379C115.877 59.7823 116.218 60.3507 116.379 61.084H114.377C114.209 60.6147 113.882 60.38 113.398 60.38C113.054 60.38 112.779 60.5157 112.573 60.787C112.368 61.051 112.265 61.4323 112.265 61.931C112.265 62.4297 112.368 62.8147 112.573 63.086C112.779 63.35 113.054 63.482 113.398 63.482C113.882 63.482 114.209 63.2473 114.377 62.778H116.379C116.218 63.4967 115.877 64.0613 115.356 64.472C114.836 64.8827 114.194 65.088 113.431 65.088C112.83 65.088 112.295 64.9597 111.825 64.703C111.363 64.4463 111 64.0797 110.736 63.603C110.48 63.1263 110.351 62.569 110.351 61.931ZM120.18 65.088C119.578 65.088 119.036 64.9597 118.552 64.703C118.075 64.4463 117.697 64.0797 117.419 63.603C117.147 63.1263 117.012 62.569 117.012 61.931C117.012 61.3003 117.151 60.7467 117.43 60.27C117.708 59.786 118.09 59.4157 118.574 59.159C119.058 58.9023 119.6 58.774 120.202 58.774C120.803 58.774 121.346 58.9023 121.83 59.159C122.314 59.4157 122.695 59.786 122.974 60.27C123.252 60.7467 123.392 61.3003 123.392 61.931C123.392 62.5617 123.249 63.119 122.963 63.603C122.684 64.0797 122.299 64.4463 121.808 64.703C121.324 64.9597 120.781 65.088 120.18 65.088ZM120.18 63.46C120.539 63.46 120.843 63.328 121.093 63.064C121.349 62.8 121.478 62.4223 121.478 61.931C121.478 61.4397 121.353 61.062 121.104 60.798C120.862 60.534 120.561 60.402 120.202 60.402C119.835 60.402 119.531 60.534 119.289 60.798C119.047 61.0547 118.926 61.4323 118.926 61.931C118.926 62.4223 119.043 62.8 119.278 63.064C119.52 63.328 119.82 63.46 120.18 63.46ZM128.13 58.796C128.848 58.796 129.42 59.0307 129.846 59.5C130.278 59.962 130.495 60.6 130.495 61.414V65H128.625V61.667C128.625 61.2563 128.518 60.9373 128.306 60.71C128.093 60.4827 127.807 60.369 127.448 60.369C127.088 60.369 126.802 60.4827 126.59 60.71C126.377 60.9373 126.271 61.2563 126.271 61.667V65H124.39V58.862H126.271V59.676C126.461 59.4047 126.718 59.192 127.041 59.038C127.363 58.8767 127.726 58.796 128.13 58.796ZM135.223 63.405V65H134.266C133.584 65 133.052 64.835 132.671 64.505C132.289 64.1677 132.099 63.6213 132.099 62.866V60.424H131.351V58.862H132.099V57.366H133.98V58.862H135.212V60.424H133.98V62.888C133.98 63.0713 134.024 63.2033 134.112 63.284C134.2 63.3647 134.346 63.405 134.552 63.405H135.223ZM138.151 59.885C138.371 59.5477 138.646 59.2837 138.976 59.093C139.306 58.895 139.673 58.796 140.076 58.796V60.787H139.559C139.09 60.787 138.738 60.8897 138.503 61.095C138.269 61.293 138.151 61.645 138.151 62.151V65H136.27V58.862H138.151V59.885ZM143.769 65.088C143.168 65.088 142.625 64.9597 142.141 64.703C141.665 64.4463 141.287 64.0797 141.008 63.603C140.737 63.1263 140.601 62.569 140.601 61.931C140.601 61.3003 140.741 60.7467 141.019 60.27C141.298 59.786 141.679 59.4157 142.163 59.159C142.647 58.9023 143.19 58.774 143.791 58.774C144.393 58.774 144.935 58.9023 145.419 59.159C145.903 59.4157 146.285 59.786 146.563 60.27C146.842 60.7467 146.981 61.3003 146.981 61.931C146.981 62.5617 146.838 63.119 146.552 63.603C146.274 64.0797 145.889 64.4463 145.397 64.703C144.913 64.9597 144.371 65.088 143.769 65.088ZM143.769 63.46C144.129 63.46 144.433 63.328 144.682 63.064C144.939 62.8 145.067 62.4223 145.067 61.931C145.067 61.4397 144.943 61.062 144.693 60.798C144.451 60.534 144.151 60.402 143.791 60.402C143.425 60.402 143.12 60.534 142.878 60.798C142.636 61.0547 142.515 61.4323 142.515 61.931C142.515 62.4223 142.633 62.8 142.867 63.064C143.109 63.328 143.41 63.46 143.769 63.46ZM149.86 56.86V65H147.979V56.86H149.86ZM157.01 61.832C157.01 62.008 156.999 62.1913 156.977 62.382H152.72C152.749 62.7633 152.87 63.0567 153.083 63.262C153.303 63.46 153.57 63.559 153.886 63.559C154.355 63.559 154.681 63.361 154.865 62.965H156.867C156.764 63.3683 156.577 63.7313 156.306 64.054C156.042 64.3767 155.708 64.6297 155.305 64.813C154.901 64.9963 154.45 65.088 153.952 65.088C153.35 65.088 152.815 64.9597 152.346 64.703C151.876 64.4463 151.51 64.0797 151.246 63.603C150.982 63.1263 150.85 62.569 150.85 61.931C150.85 61.293 150.978 60.7357 151.235 60.259C151.499 59.7823 151.865 59.4157 152.335 59.159C152.804 58.9023 153.343 58.774 153.952 58.774C154.546 58.774 155.074 58.8987 155.536 59.148C155.998 59.3973 156.357 59.753 156.614 60.215C156.878 60.677 157.01 61.216 157.01 61.832ZM155.085 61.337C155.085 61.0143 154.975 60.7577 154.755 60.567C154.535 60.3763 154.26 60.281 153.93 60.281C153.614 60.281 153.347 60.3727 153.127 60.556C152.914 60.7393 152.782 60.9997 152.731 61.337H155.085ZM159.959 61.92C159.959 61.2893 160.076 60.7357 160.311 60.259C160.553 59.7823 160.879 59.4157 161.29 59.159C161.701 58.9023 162.159 58.774 162.665 58.774C163.068 58.774 163.435 58.8583 163.765 59.027C164.102 59.1957 164.366 59.423 164.557 59.709V56.86H166.438V65H164.557V64.12C164.381 64.4133 164.128 64.648 163.798 64.824C163.475 65 163.098 65.088 162.665 65.088C162.159 65.088 161.701 64.9597 161.29 64.703C160.879 64.439 160.553 64.0687 160.311 63.592C160.076 63.108 159.959 62.5507 159.959 61.92ZM164.557 61.931C164.557 61.4617 164.425 61.0913 164.161 60.82C163.904 60.5487 163.589 60.413 163.215 60.413C162.841 60.413 162.522 60.5487 162.258 60.82C162.001 61.084 161.873 61.4507 161.873 61.92C161.873 62.3893 162.001 62.7633 162.258 63.042C162.522 63.3133 162.841 63.449 163.215 63.449C163.589 63.449 163.904 63.3133 164.161 63.042C164.425 62.7707 164.557 62.4003 164.557 61.931ZM167.425 61.92C167.425 61.2893 167.542 60.7357 167.777 60.259C168.019 59.7823 168.345 59.4157 168.756 59.159C169.166 58.9023 169.625 58.774 170.131 58.774C170.563 58.774 170.941 58.862 171.264 59.038C171.594 59.214 171.847 59.445 172.023 59.731V58.862H173.904V65H172.023V64.131C171.839 64.417 171.583 64.648 171.253 64.824C170.93 65 170.552 65.088 170.12 65.088C169.621 65.088 169.166 64.9597 168.756 64.703C168.345 64.439 168.019 64.0687 167.777 63.592C167.542 63.108 167.425 62.5507 167.425 61.92ZM172.023 61.931C172.023 61.4617 171.891 61.0913 171.627 60.82C171.37 60.5487 171.055 60.413 170.681 60.413C170.307 60.413 169.988 60.5487 169.724 60.82C169.467 61.084 169.339 61.4507 169.339 61.92C169.339 62.3893 169.467 62.7633 169.724 63.042C169.988 63.3133 170.307 63.449 170.681 63.449C171.055 63.449 171.37 63.3133 171.627 63.042C171.891 62.7707 172.023 62.4003 172.023 61.931ZM180.093 65.088C179.557 65.088 179.081 64.9963 178.663 64.813C178.245 64.6297 177.915 64.3803 177.673 64.065C177.431 63.7423 177.295 63.383 177.266 62.987H179.125C179.147 63.1997 179.246 63.372 179.422 63.504C179.598 63.636 179.814 63.702 180.071 63.702C180.305 63.702 180.485 63.658 180.61 63.57C180.742 63.4747 180.808 63.3537 180.808 63.207C180.808 63.031 180.716 62.9027 180.533 62.822C180.349 62.734 180.052 62.6387 179.642 62.536C179.202 62.4333 178.835 62.327 178.542 62.217C178.248 62.0997 177.995 61.92 177.783 61.678C177.57 61.4287 177.464 61.095 177.464 60.677C177.464 60.325 177.559 60.006 177.75 59.72C177.948 59.4267 178.234 59.1957 178.608 59.027C178.989 58.8583 179.44 58.774 179.961 58.774C180.731 58.774 181.336 58.9647 181.776 59.346C182.223 59.7273 182.48 60.2333 182.546 60.864H180.808C180.778 60.6513 180.683 60.4827 180.522 60.358C180.368 60.2333 180.162 60.171 179.906 60.171C179.686 60.171 179.517 60.215 179.4 60.303C179.282 60.3837 179.224 60.4973 179.224 60.644C179.224 60.82 179.315 60.952 179.499 61.04C179.689 61.128 179.983 61.216 180.379 61.304C180.833 61.4213 181.204 61.5387 181.49 61.656C181.776 61.766 182.025 61.9493 182.238 62.206C182.458 62.4553 182.571 62.7927 182.579 63.218C182.579 63.5773 182.476 63.9 182.271 64.186C182.073 64.4647 181.783 64.6847 181.402 64.846C181.028 65.0073 180.591 65.088 180.093 65.088ZM189.79 58.862V65H187.909V64.164C187.719 64.4353 187.458 64.6553 187.128 64.824C186.806 64.9853 186.446 65.066 186.05 65.066C185.581 65.066 185.167 64.9633 184.807 64.758C184.448 64.5453 184.169 64.241 183.971 63.845C183.773 63.449 183.674 62.9833 183.674 62.448V58.862H185.544V62.195C185.544 62.6057 185.651 62.9247 185.863 63.152C186.076 63.3793 186.362 63.493 186.721 63.493C187.088 63.493 187.378 63.3793 187.59 63.152C187.803 62.9247 187.909 62.6057 187.909 62.195V58.862H189.79ZM190.767 61.92C190.767 61.2893 190.885 60.7357 191.119 60.259C191.361 59.7823 191.688 59.4157 192.098 59.159C192.509 58.9023 192.967 58.774 193.473 58.774C193.906 58.774 194.284 58.862 194.606 59.038C194.936 59.214 195.189 59.445 195.365 59.731V58.862H197.246V65H195.365V64.131C195.182 64.417 194.925 64.648 194.595 64.824C194.273 65 193.895 65.088 193.462 65.088C192.964 65.088 192.509 64.9597 192.098 64.703C191.688 64.439 191.361 64.0687 191.119 63.592C190.885 63.108 190.767 62.5507 190.767 61.92ZM195.365 61.931C195.365 61.4617 195.233 61.0913 194.969 60.82C194.713 60.5487 194.397 60.413 194.023 60.413C193.649 60.413 193.33 60.5487 193.066 60.82C192.81 61.084 192.681 61.4507 192.681 61.92C192.681 62.3893 192.81 62.7633 193.066 63.042C193.33 63.3133 193.649 63.449 194.023 63.449C194.397 63.449 194.713 63.3133 194.969 63.042C195.233 62.7707 195.365 62.4003 195.365 61.931ZM203.435 65.088C202.9 65.088 202.423 64.9963 202.005 64.813C201.587 64.6297 201.257 64.3803 201.015 64.065C200.773 63.7423 200.638 63.383 200.608 62.987H202.467C202.489 63.1997 202.588 63.372 202.764 63.504C202.94 63.636 203.157 63.702 203.413 63.702C203.648 63.702 203.828 63.658 203.952 63.57C204.084 63.4747 204.15 63.3537 204.15 63.207C204.15 63.031 204.059 62.9027 203.875 62.822C203.692 62.734 203.395 62.6387 202.984 62.536C202.544 62.4333 202.178 62.327 201.884 62.217C201.591 62.0997 201.338 61.92 201.125 61.678C200.913 61.4287 200.806 61.095 200.806 60.677C200.806 60.325 200.902 60.006 201.092 59.72C201.29 59.4267 201.576 59.1957 201.95 59.027C202.332 58.8583 202.783 58.774 203.303 58.774C204.073 58.774 204.678 58.9647 205.118 59.346C205.566 59.7273 205.822 60.2333 205.888 60.864H204.15C204.121 60.6513 204.026 60.4827 203.864 60.358C203.71 60.2333 203.505 60.171 203.248 60.171C203.028 60.171 202.86 60.215 202.742 60.303C202.625 60.3837 202.566 60.4973 202.566 60.644C202.566 60.82 202.658 60.952 202.841 61.04C203.032 61.128 203.325 61.216 203.721 61.304C204.176 61.4213 204.546 61.5387 204.832 61.656C205.118 61.766 205.368 61.9493 205.58 62.206C205.8 62.4553 205.914 62.7927 205.921 63.218C205.921 63.5773 205.819 63.9 205.613 64.186C205.415 64.4647 205.126 64.6847 204.744 64.846C204.37 65.0073 203.934 65.088 203.435 65.088ZM206.698 61.92C206.698 61.2893 206.815 60.7357 207.05 60.259C207.292 59.7823 207.618 59.4157 208.029 59.159C208.44 58.9023 208.898 58.774 209.404 58.774C209.837 58.774 210.214 58.862 210.537 59.038C210.867 59.214 211.12 59.445 211.296 59.731V58.862H213.177V65H211.296V64.131C211.113 64.417 210.856 64.648 210.526 64.824C210.203 65 209.826 65.088 209.393 65.088C208.894 65.088 208.44 64.9597 208.029 64.703C207.618 64.439 207.292 64.0687 207.05 63.592C206.815 63.108 206.698 62.5507 206.698 61.92ZM211.296 61.931C211.296 61.4617 211.164 61.0913 210.9 60.82C210.643 60.5487 210.328 60.413 209.954 60.413C209.58 60.413 209.261 60.5487 208.997 60.82C208.74 61.084 208.612 61.4507 208.612 61.92C208.612 62.3893 208.74 62.7633 208.997 63.042C209.261 63.3133 209.58 63.449 209.954 63.449C210.328 63.449 210.643 63.3133 210.9 63.042C211.164 62.7707 211.296 62.4003 211.296 61.931ZM220.599 58.862V65H218.718V64.164C218.527 64.4353 218.267 64.6553 217.937 64.824C217.614 64.9853 217.255 65.066 216.859 65.066C216.39 65.066 215.975 64.9633 215.616 64.758C215.257 64.5453 214.978 64.241 214.78 63.845C214.582 63.449 214.483 62.9833 214.483 62.448V58.862H216.353V62.195C216.353 62.6057 216.459 62.9247 216.672 63.152C216.885 63.3793 217.171 63.493 217.53 63.493C217.897 63.493 218.186 63.3793 218.399 63.152C218.612 62.9247 218.718 62.6057 218.718 62.195V58.862H220.599ZM218.85 57.333L216.199 58.444V57.146L218.85 55.87V57.333ZM221.576 61.92C221.576 61.2893 221.693 60.7357 221.928 60.259C222.17 59.7823 222.496 59.4157 222.907 59.159C223.318 58.9023 223.776 58.774 224.282 58.774C224.685 58.774 225.052 58.8583 225.382 59.027C225.719 59.1957 225.983 59.423 226.174 59.709V56.86H228.055V65H226.174V64.12C225.998 64.4133 225.745 64.648 225.415 64.824C225.092 65 224.715 65.088 224.282 65.088C223.776 65.088 223.318 64.9597 222.907 64.703C222.496 64.439 222.17 64.0687 221.928 63.592C221.693 63.108 221.576 62.5507 221.576 61.92ZM226.174 61.931C226.174 61.4617 226.042 61.0913 225.778 60.82C225.521 60.5487 225.206 60.413 224.832 60.413C224.458 60.413 224.139 60.5487 223.875 60.82C223.618 61.084 223.49 61.4507 223.49 61.92C223.49 62.3893 223.618 62.7633 223.875 63.042C224.139 63.3133 224.458 63.449 224.832 63.449C225.206 63.449 225.521 63.3133 225.778 63.042C226.042 62.7707 226.174 62.4003 226.174 61.931ZM235.202 61.832C235.202 62.008 235.191 62.1913 235.169 62.382H230.912C230.941 62.7633 231.062 63.0567 231.275 63.262C231.495 63.46 231.763 63.559 232.078 63.559C232.547 63.559 232.874 63.361 233.057 62.965H235.059C234.956 63.3683 234.769 63.7313 234.498 64.054C234.234 64.3767 233.9 64.6297 233.497 64.813C233.094 64.9963 232.643 65.088 232.144 65.088C231.543 65.088 231.007 64.9597 230.538 64.703C230.069 64.4463 229.702 64.0797 229.438 63.603C229.174 63.1263 229.042 62.569 229.042 61.931C229.042 61.293 229.17 60.7357 229.427 60.259C229.691 59.7823 230.058 59.4157 230.527 59.159C230.996 58.9023 231.535 58.774 232.144 58.774C232.738 58.774 233.266 58.8987 233.728 59.148C234.19 59.3973 234.549 59.753 234.806 60.215C235.07 60.677 235.202 61.216 235.202 61.832ZM233.277 61.337C233.277 61.0143 233.167 60.7577 232.947 60.567C232.727 60.3763 232.452 60.281 232.122 60.281C231.807 60.281 231.539 60.3727 231.319 60.556C231.106 60.7393 230.974 60.9997 230.923 61.337H233.277Z" fill="#2B318A"/>
<path d="M80.4009 27.768C80.4009 29.0693 80.1022 30.264 79.5049 31.352C78.9075 32.4187 77.9902 33.2827 76.7529 33.944C75.5155 34.6053 73.9795 34.936 72.1449 34.936H68.7529V43H63.2809V20.536H72.1449C73.9369 20.536 75.4515 20.8453 76.6889 21.464C77.9262 22.0827 78.8542 22.936 79.4729 24.024C80.0915 25.112 80.4009 26.36 80.4009 27.768ZM71.7289 30.584C72.7742 30.584 73.5529 30.3387 74.0649 29.848C74.5769 29.3573 74.8329 28.664 74.8329 27.768C74.8329 26.872 74.5769 26.1787 74.0649 25.688C73.5529 25.1973 72.7742 24.952 71.7289 24.952H68.7529V30.584H71.7289ZM88.7216 28.12C89.3616 27.1387 90.1616 26.3707 91.1216 25.816C92.0816 25.24 93.1483 24.952 94.3216 24.952V30.744H92.8176C91.4523 30.744 90.4283 31.0427 89.7456 31.64C89.063 32.216 88.7216 33.24 88.7216 34.712V43H83.2496V25.144H88.7216V28.12ZM105.065 43.256C103.316 43.256 101.737 42.8827 100.329 42.136C98.9425 41.3893 97.8438 40.3227 97.0331 38.936C96.2438 37.5493 95.8491 35.928 95.8491 34.072C95.8491 32.2373 96.2545 30.6267 97.0651 29.24C97.8758 27.832 98.9851 26.7547 100.393 26.008C101.801 25.2613 103.38 24.888 105.129 24.888C106.878 24.888 108.457 25.2613 109.865 26.008C111.273 26.7547 112.382 27.832 113.193 29.24C114.004 30.6267 114.409 32.2373 114.409 34.072C114.409 35.9067 113.993 37.528 113.161 38.936C112.35 40.3227 111.23 41.3893 109.801 42.136C108.393 42.8827 106.814 43.256 105.065 43.256ZM105.065 38.52C106.11 38.52 106.996 38.136 107.721 37.368C108.468 36.6 108.841 35.5013 108.841 34.072C108.841 32.6427 108.478 31.544 107.753 30.776C107.049 30.008 106.174 29.624 105.129 29.624C104.062 29.624 103.177 30.008 102.473 30.776C101.769 31.5227 101.417 32.6213 101.417 34.072C101.417 35.5013 101.758 36.6 102.441 37.368C103.145 38.136 104.02 38.52 105.065 38.52ZM128.192 24.952C130.283 24.952 131.947 25.6347 133.184 27C134.443 28.344 135.072 30.2 135.072 32.568V43H129.632V33.304C129.632 32.1093 129.323 31.1813 128.704 30.52C128.085 29.8587 127.253 29.528 126.208 29.528C125.163 29.528 124.331 29.8587 123.712 30.52C123.093 31.1813 122.784 32.1093 122.784 33.304V43H117.312V25.144H122.784V27.512C123.339 26.7227 124.085 26.104 125.024 25.656C125.963 25.1867 127.019 24.952 128.192 24.952ZM148.827 38.36V43H146.043C144.059 43 142.512 42.52 141.403 41.56C140.293 40.5787 139.739 38.9893 139.739 36.792V29.688H137.563V25.144H139.739V20.792H145.211V25.144H148.795V29.688H145.211V36.856C145.211 37.3893 145.339 37.7733 145.595 38.008C145.851 38.2427 146.277 38.36 146.875 38.36H148.827ZM160.003 43.256C158.253 43.256 156.675 42.8827 155.267 42.136C153.88 41.3893 152.781 40.3227 151.971 38.936C151.181 37.5493 150.787 35.928 150.787 34.072C150.787 32.2373 151.192 30.6267 152.003 29.24C152.813 27.832 153.923 26.7547 155.331 26.008C156.739 25.2613 158.317 24.888 160.067 24.888C161.816 24.888 163.395 25.2613 164.803 26.008C166.211 26.7547 167.32 27.832 168.131 29.24C168.941 30.6267 169.347 32.2373 169.347 34.072C169.347 35.9067 168.931 37.528 168.099 38.936C167.288 40.3227 166.168 41.3893 164.739 42.136C163.331 42.8827 161.752 43.256 160.003 43.256ZM160.003 38.52C161.048 38.52 161.933 38.136 162.659 37.368C163.405 36.6 163.779 35.5013 163.779 34.072C163.779 32.6427 163.416 31.544 162.691 30.776C161.987 30.008 161.112 29.624 160.067 29.624C159 29.624 158.115 30.008 157.411 30.776C156.707 31.5227 156.355 32.6213 156.355 34.072C156.355 35.5013 156.696 36.6 157.379 37.368C158.083 38.136 158.957 38.52 160.003 38.52ZM190.487 43L185.815 34.52H184.503V43H179.031V20.536H188.215C189.986 20.536 191.49 20.8453 192.727 21.464C193.986 22.0827 194.924 22.936 195.543 24.024C196.162 25.0907 196.471 26.2853 196.471 27.608C196.471 29.1013 196.044 30.4347 195.191 31.608C194.359 32.7813 193.122 33.6133 191.479 34.104L196.663 43H190.487ZM184.503 30.648H187.895C188.898 30.648 189.644 30.4027 190.135 29.912C190.647 29.4213 190.903 28.728 190.903 27.832C190.903 26.9787 190.647 26.3067 190.135 25.816C189.644 25.3253 188.898 25.08 187.895 25.08H184.503V30.648ZM216.738 33.784C216.738 34.296 216.706 34.8293 216.642 35.384H204.258C204.343 36.4933 204.695 37.3467 205.314 37.944C205.954 38.52 206.733 38.808 207.65 38.808C209.015 38.808 209.965 38.232 210.498 37.08H216.322C216.023 38.2533 215.479 39.3093 214.69 40.248C213.922 41.1867 212.951 41.9227 211.778 42.456C210.605 42.9893 209.293 43.256 207.842 43.256C206.093 43.256 204.535 42.8827 203.17 42.136C201.805 41.3893 200.738 40.3227 199.97 38.936C199.202 37.5493 198.818 35.928 198.818 34.072C198.818 32.216 199.191 30.5947 199.938 29.208C200.706 27.8213 201.773 26.7547 203.138 26.008C204.503 25.2613 206.071 24.888 207.842 24.888C209.57 24.888 211.106 25.2507 212.45 25.976C213.794 26.7013 214.839 27.736 215.586 29.08C216.354 30.424 216.738 31.992 216.738 33.784ZM211.138 32.344C211.138 31.4053 210.818 30.6587 210.178 30.104C209.538 29.5493 208.738 29.272 207.778 29.272C206.861 29.272 206.082 29.5387 205.442 30.072C204.823 30.6053 204.439 31.3627 204.29 32.344H211.138ZM218.537 34.072C218.537 32.216 218.91 30.5947 219.657 29.208C220.425 27.8213 221.481 26.7547 222.825 26.008C224.19 25.2613 225.747 24.888 227.497 24.888C229.737 24.888 231.603 25.4747 233.097 26.648C234.611 27.8213 235.603 29.4747 236.073 31.608H230.249C229.758 30.2427 228.809 29.56 227.401 29.56C226.398 29.56 225.598 29.9547 225.001 30.744C224.403 31.512 224.105 32.6213 224.105 34.072C224.105 35.5227 224.403 36.6427 225.001 37.432C225.598 38.2 226.398 38.584 227.401 38.584C228.809 38.584 229.758 37.9013 230.249 36.536H236.073C235.603 38.6267 234.611 40.2693 233.097 41.464C231.582 42.6587 229.715 43.256 227.497 43.256C225.747 43.256 224.19 42.8827 222.825 42.136C221.481 41.3893 220.425 40.3227 219.657 38.936C218.91 37.5493 218.537 35.928 218.537 34.072ZM241.752 23.288C240.792 23.288 240.002 23.0107 239.384 22.456C238.786 21.88 238.488 21.176 238.488 20.344C238.488 19.4907 238.786 18.7867 239.384 18.232C240.002 17.656 240.792 17.368 241.752 17.368C242.69 17.368 243.458 17.656 244.056 18.232C244.674 18.7867 244.984 19.4907 244.984 20.344C244.984 21.176 244.674 21.88 244.056 22.456C243.458 23.0107 242.69 23.288 241.752 23.288ZM244.472 25.144V43H239V25.144H244.472ZM257.397 29.688H254.453V43H248.981V29.688H246.997V25.144H248.981V24.632C248.981 22.4347 249.61 20.7707 250.869 19.64C252.128 18.488 253.973 17.912 256.405 17.912C256.81 17.912 257.109 17.9227 257.301 17.944V22.584C256.256 22.52 255.52 22.6693 255.093 23.032C254.666 23.3947 254.453 24.0453 254.453 24.984V25.144H257.397V29.688ZM276.8 33.784C276.8 34.296 276.768 34.8293 276.704 35.384H264.32C264.406 36.4933 264.758 37.3467 265.376 37.944C266.016 38.52 266.795 38.808 267.712 38.808C269.078 38.808 270.027 38.232 270.56 37.08H276.384C276.086 38.2533 275.542 39.3093 274.752 40.248C273.984 41.1867 273.014 41.9227 271.84 42.456C270.667 42.9893 269.355 43.256 267.904 43.256C266.155 43.256 264.598 42.8827 263.232 42.136C261.867 41.3893 260.8 40.3227 260.032 38.936C259.264 37.5493 258.88 35.928 258.88 34.072C258.88 32.216 259.254 30.5947 260 29.208C260.768 27.8213 261.835 26.7547 263.2 26.008C264.566 25.2613 266.134 24.888 267.904 24.888C269.632 24.888 271.168 25.2507 272.512 25.976C273.856 26.7013 274.902 27.736 275.648 29.08C276.416 30.424 276.8 31.992 276.8 33.784ZM271.2 32.344C271.2 31.4053 270.88 30.6587 270.24 30.104C269.6 29.5493 268.8 29.272 267.84 29.272C266.923 29.272 266.144 29.5387 265.504 30.072C264.886 30.6053 264.502 31.3627 264.352 32.344H271.2Z" fill="#2B318A"/>
<path fill-rule="evenodd" clip-rule="evenodd" d="M15.0646 11.7466C15.0646 8.63124 16.2981 5.64344 18.4938 3.44051C20.6895 1.23759 23.6675 0 26.7727 0C29.8778 0 32.8558 1.23759 35.0515 3.44051C37.2472 5.64344 38.4807 8.63124 38.4807 11.7466C38.4807 14.8621 37.2472 17.8499 35.0515 20.0528C32.8558 22.2557 29.8778 23.4933 26.7727 23.4933C23.6675 23.4933 20.6895 22.2557 18.4938 20.0528C16.2981 17.8499 15.0646 14.8621 15.0646 11.7466ZM3.7409 30.9878C6.12421 28.7179 9.28505 27.4523 12.5713 27.4523C15.8575 27.4523 19.0183 28.7179 21.4016 30.9878L21.4522 31.0386L26.7727 36.3766L32.0982 31.0386L32.1488 30.9878C34.5316 28.7208 37.6903 27.4571 40.9741 27.4571C44.2579 27.4571 47.4166 28.7208 49.7994 30.9878C50.9817 32.1148 51.9233 33.471 52.5673 34.9742C53.2113 36.4774 53.544 38.0962 53.5455 39.7324C53.5469 41.3685 53.2169 42.9879 52.5755 44.4923C51.9342 45.9966 50.9949 47.3545 49.8145 48.4835L28.5327 69.2367C28.0607 69.697 27.4284 69.9545 26.7701 69.9545C26.1119 69.9545 25.4796 69.697 25.0076 69.2367L3.73078 48.4835C2.55093 47.3549 1.61187 45.9976 0.970561 44.4939C0.329251 42.9902 -0.000943822 41.3715 2.0263e-06 39.736C0.000947875 38.1005 0.333015 36.4822 0.976064 34.9792C1.61911 33.4763 2.55974 32.1151 3.7409 30.9878Z" fill="#2B318A"/>
</svg>
