<svg width="154" height="39" viewBox="0 0 154 39" fill="none" xmlns="http://www.w3.org/2000/svg">
<path d="M48.397 18.6736C48.397 19.3242 48.2477 19.9216 47.949 20.4656C47.6504 20.9989 47.1917 21.4309 46.573 21.7616C45.9544 22.0922 45.1864 22.2576 44.269 22.2576H42.573V26.2896H39.837V15.0576H44.269C45.165 15.0576 45.9224 15.2122 46.541 15.5216C47.1597 15.8309 47.6237 16.2575 47.933 16.8015C48.2424 17.3455 48.397 17.9696 48.397 18.6736ZM44.061 20.0816C44.5837 20.0816 44.973 19.9589 45.229 19.7136C45.485 19.4682 45.613 19.1216 45.613 18.6736C45.613 18.2256 45.485 17.8789 45.229 17.6336C44.973 17.3882 44.5837 17.2656 44.061 17.2656H42.573V20.0816H44.061ZM52.5574 18.8496C52.8774 18.3589 53.2774 17.9749 53.7574 17.6976C54.2374 17.4096 54.7707 17.2656 55.3574 17.2656V20.1616H54.6054C53.9227 20.1616 53.4107 20.3109 53.0694 20.6096C52.7281 20.8976 52.5574 21.4096 52.5574 22.1456V26.2896H49.8214V17.3616H52.5574V18.8496ZM60.7292 26.4176C59.8545 26.4176 59.0652 26.2309 58.3612 25.8576C57.6678 25.4842 57.1185 24.9509 56.7132 24.2576C56.3185 23.5642 56.1212 22.7536 56.1212 21.8256C56.1212 20.9082 56.3238 20.1029 56.7292 19.4096C57.1345 18.7056 57.6892 18.1669 58.3932 17.7936C59.0972 17.4202 59.8865 17.2336 60.7612 17.2336C61.6358 17.2336 62.4252 17.4202 63.1292 17.7936C63.8332 18.1669 64.3878 18.7056 64.7932 19.4096C65.1985 20.1029 65.4012 20.9082 65.4012 21.8256C65.4012 22.7429 65.1932 23.5536 64.7772 24.2576C64.3718 24.9509 63.8118 25.4842 63.0972 25.8576C62.3932 26.2309 61.6038 26.4176 60.7292 26.4176ZM60.7292 24.0496C61.2518 24.0496 61.6945 23.8576 62.0572 23.4736C62.4305 23.0896 62.6172 22.5402 62.6172 21.8256C62.6172 21.1109 62.4358 20.5616 62.0732 20.1776C61.7212 19.7936 61.2838 19.6016 60.7612 19.6016C60.2278 19.6016 59.7852 19.7936 59.4332 20.1776C59.0812 20.5509 58.9052 21.1002 58.9052 21.8256C58.9052 22.5402 59.0758 23.0896 59.4172 23.4736C59.7692 23.8576 60.2065 24.0496 60.7292 24.0496ZM72.2927 17.2656C73.338 17.2656 74.17 17.6069 74.7887 18.2896C75.418 18.9616 75.7327 19.8896 75.7327 21.0736V26.2896H73.0127V21.4416C73.0127 20.8442 72.858 20.3802 72.5487 20.0496C72.2393 19.7189 71.8233 19.5536 71.3007 19.5536C70.778 19.5536 70.362 19.7189 70.0527 20.0496C69.7433 20.3802 69.5887 20.8442 69.5887 21.4416V26.2896H66.8527V17.3616H69.5887V18.5456C69.866 18.1509 70.2393 17.8416 70.7087 17.6175C71.178 17.3829 71.706 17.2656 72.2927 17.2656ZM82.6099 23.9696V26.2896H81.2179C80.2259 26.2896 79.4526 26.0496 78.8979 25.5696C78.3432 25.0789 78.0659 24.2842 78.0659 23.1856V19.6336H76.9779V17.3616H78.0659V15.1856H80.8019V17.3616H82.5939V19.6336H80.8019V23.2176C80.8019 23.4842 80.8659 23.6762 80.9939 23.7936C81.1219 23.9109 81.3352 23.9696 81.6339 23.9696H82.6099ZM88.1979 26.4176C87.3232 26.4176 86.5339 26.2309 85.8299 25.8576C85.1366 25.4842 84.5872 24.9509 84.1819 24.2576C83.7872 23.5642 83.5899 22.7536 83.5899 21.8256C83.5899 20.9082 83.7926 20.1029 84.1979 19.4096C84.6032 18.7056 85.1579 18.1669 85.8619 17.7936C86.5659 17.4202 87.3552 17.2336 88.2299 17.2336C89.1046 17.2336 89.8939 17.4202 90.5979 17.7936C91.3019 18.1669 91.8566 18.7056 92.2619 19.4096C92.6672 20.1029 92.8699 20.9082 92.8699 21.8256C92.8699 22.7429 92.6619 23.5536 92.2459 24.2576C91.8406 24.9509 91.2806 25.4842 90.5659 25.8576C89.8619 26.2309 89.0726 26.4176 88.1979 26.4176ZM88.1979 24.0496C88.7206 24.0496 89.1632 23.8576 89.5259 23.4736C89.8992 23.0896 90.0859 22.5402 90.0859 21.8256C90.0859 21.1109 89.9046 20.5616 89.5419 20.1776C89.1899 19.7936 88.7526 19.6016 88.2299 19.6016C87.6966 19.6016 87.2539 19.7936 86.9019 20.1776C86.5499 20.5509 86.3739 21.1002 86.3739 21.8256C86.3739 22.5402 86.5446 23.0896 86.8859 23.4736C87.2379 23.8576 87.6752 24.0496 88.1979 24.0496ZM103.44 26.2896L101.104 22.0496H100.448V26.2896H97.712V15.0576H102.304C103.189 15.0576 103.941 15.2122 104.56 15.5216C105.189 15.8309 105.659 16.2575 105.968 16.8015C106.277 17.3349 106.432 17.9322 106.432 18.5936C106.432 19.3402 106.219 20.0069 105.792 20.5936C105.376 21.1802 104.757 21.5962 103.936 21.8416L106.528 26.2896H103.44ZM100.448 20.1136H102.144C102.645 20.1136 103.019 19.9909 103.264 19.7456C103.52 19.5002 103.648 19.1536 103.648 18.7056C103.648 18.2789 103.52 17.9429 103.264 17.6976C103.019 17.4522 102.645 17.3296 102.144 17.3296H100.448V20.1136ZM116.566 21.6816C116.566 21.9376 116.55 22.2042 116.518 22.4816H110.326C110.368 23.0362 110.544 23.4629 110.854 23.7616C111.174 24.0496 111.563 24.1936 112.022 24.1936C112.704 24.1936 113.179 23.9056 113.446 23.3296H116.358C116.208 23.9162 115.936 24.4442 115.542 24.9136C115.158 25.3829 114.672 25.7509 114.086 26.0176C113.499 26.2842 112.843 26.4176 112.118 26.4176C111.243 26.4176 110.464 26.2309 109.782 25.8576C109.099 25.4842 108.566 24.9509 108.182 24.2576C107.798 23.5642 107.606 22.7536 107.606 21.8256C107.606 20.8976 107.792 20.0869 108.166 19.3936C108.55 18.7002 109.083 18.1669 109.766 17.7936C110.448 17.4202 111.232 17.2336 112.118 17.2336C112.982 17.2336 113.75 17.4149 114.422 17.7776C115.094 18.1402 115.616 18.6576 115.99 19.3296C116.374 20.0016 116.566 20.7856 116.566 21.6816ZM113.766 20.9616C113.766 20.4922 113.606 20.1189 113.286 19.8416C112.966 19.5642 112.566 19.4256 112.086 19.4256C111.627 19.4256 111.238 19.5589 110.918 19.8256C110.608 20.0922 110.416 20.4709 110.342 20.9616H113.766ZM117.465 21.8256C117.465 20.8976 117.652 20.0869 118.025 19.3936C118.409 18.7002 118.937 18.1669 119.609 17.7936C120.292 17.4202 121.07 17.2336 121.945 17.2336C123.065 17.2336 123.998 17.5269 124.745 18.1136C125.502 18.7002 125.998 19.5269 126.233 20.5936H123.321C123.076 19.9109 122.601 19.5696 121.897 19.5696C121.396 19.5696 120.996 19.7669 120.697 20.1616C120.398 20.5456 120.249 21.1002 120.249 21.8256C120.249 22.5509 120.398 23.1109 120.697 23.5056C120.996 23.8896 121.396 24.0816 121.897 24.0816C122.601 24.0816 123.076 23.7402 123.321 23.0576H126.233C125.998 24.1029 125.502 24.9242 124.745 25.5216C123.988 26.1189 123.054 26.4176 121.945 26.4176C121.07 26.4176 120.292 26.2309 119.609 25.8576C118.937 25.4842 118.409 24.9509 118.025 24.2576C117.652 23.5642 117.465 22.7536 117.465 21.8256ZM129.072 16.4335C128.592 16.4335 128.198 16.2949 127.888 16.0176C127.59 15.7296 127.44 15.3776 127.44 14.9616C127.44 14.5349 127.59 14.1829 127.888 13.9056C128.198 13.6175 128.592 13.4735 129.072 13.4735C129.542 13.4735 129.926 13.6175 130.224 13.9056C130.534 14.1829 130.688 14.5349 130.688 14.9616C130.688 15.3776 130.534 15.7296 130.224 16.0176C129.926 16.2949 129.542 16.4335 129.072 16.4335ZM130.432 17.3616V26.2896H127.696V17.3616H130.432ZM136.895 19.6336H135.423V26.2896H132.687V19.6336H131.695V17.3616H132.687V17.1056C132.687 16.0069 133.002 15.1749 133.631 14.6096C134.26 14.0336 135.183 13.7456 136.399 13.7456C136.602 13.7456 136.751 13.7509 136.847 13.7615V16.0816C136.324 16.0496 135.956 16.1242 135.743 16.3056C135.53 16.4869 135.423 16.8122 135.423 17.2816V17.3616H136.895V19.6336ZM146.597 21.6816C146.597 21.9376 146.581 22.2042 146.549 22.4816H140.357C140.399 23.0362 140.575 23.4629 140.885 23.7616C141.205 24.0496 141.594 24.1936 142.053 24.1936C142.735 24.1936 143.21 23.9056 143.477 23.3296H146.389C146.239 23.9162 145.967 24.4442 145.573 24.9136C145.189 25.3829 144.703 25.7509 144.117 26.0176C143.53 26.2842 142.874 26.4176 142.149 26.4176C141.274 26.4176 140.495 26.2309 139.813 25.8576C139.13 25.4842 138.597 24.9509 138.213 24.2576C137.829 23.5642 137.637 22.7536 137.637 21.8256C137.637 20.8976 137.823 20.0869 138.197 19.3936C138.581 18.7002 139.114 18.1669 139.797 17.7936C140.479 17.4202 141.263 17.2336 142.149 17.2336C143.013 17.2336 143.781 17.4149 144.453 17.7776C145.125 18.1402 145.647 18.6576 146.021 19.3296C146.405 20.0016 146.597 20.7856 146.597 21.6816ZM143.797 20.9616C143.797 20.4922 143.637 20.1189 143.317 19.8416C142.997 19.5642 142.597 19.4256 142.117 19.4256C141.658 19.4256 141.269 19.5589 140.949 19.8256C140.639 20.0922 140.447 20.4709 140.373 20.9616H143.797Z" fill="#2B318A"/>
<path fill-rule="evenodd" clip-rule="evenodd" d="M8.2477 6.43118C8.2477 4.72552 8.92305 3.08973 10.1252 1.88364C11.3273 0.677564 12.9577 -5.32775e-06 14.6578 -5.32775e-06C16.3578 -5.32775e-06 17.9882 0.677564 19.1904 1.88364C20.3925 3.08973 21.0678 4.72552 21.0678 6.43118C21.0678 8.13683 20.3925 9.77263 19.1904 10.9787C17.9882 12.1848 16.3578 12.8624 14.6578 12.8624C12.9577 12.8624 11.3273 12.1848 10.1252 10.9787C8.92305 9.77263 8.2477 8.13683 8.2477 6.43118ZM2.04808 16.9655C3.35292 15.7228 5.08346 15.0299 6.88262 15.0299C8.68179 15.0299 10.4123 15.7228 11.7172 16.9655L11.7449 16.9933L14.6578 19.9158L17.5734 16.9933L17.6011 16.9655C18.9057 15.7244 20.6351 15.0325 22.4329 15.0325C24.2307 15.0325 25.9601 15.7244 27.2647 16.9655C27.912 17.5825 28.4275 18.3251 28.7801 19.1481C29.1326 19.971 29.3148 20.8573 29.3156 21.7531C29.3164 22.6489 29.1357 23.5355 28.7846 24.3591C28.4335 25.1827 27.9192 25.9261 27.273 26.5443L15.6213 37.9065C15.3629 38.1585 15.0168 38.2995 14.6564 38.2995C14.296 38.2995 13.9498 38.1585 13.6914 37.9065L2.04254 26.5443C1.39658 25.9264 0.882457 25.1832 0.531346 24.36C0.180235 23.5368 -0.000544072 22.6505 -2.62289e-05 21.7551C0.000491614 20.8597 0.182296 19.9736 0.534359 19.1508C0.886422 18.328 1.40141 17.5827 2.04808 16.9655Z" fill="#2B318A"/>
</svg>
