<svg width="931" height="1024" viewBox="0 0 931 1024" fill="none" xmlns="http://www.w3.org/2000/svg">
<path fill-rule="evenodd" clip-rule="evenodd" d="M328.326 116.9C328.326 49.2963 355.21 -15.5385 403.065 -63.3415C450.919 -111.145 515.823 -138 583.499 -138C651.174 -138 716.079 -111.145 763.933 -63.3415C811.787 -15.5385 838.671 49.2963 838.671 116.9C838.671 184.504 811.787 249.339 763.933 297.142C716.079 344.945 651.174 371.8 583.499 371.8C515.823 371.8 450.919 344.945 403.065 297.142C355.21 249.339 328.326 184.504 328.326 116.9ZM81.5312 534.43C133.475 485.172 202.364 457.71 273.985 457.71C345.606 457.71 414.496 485.172 466.439 534.43L467.541 535.531L583.499 651.364L699.566 535.531L700.668 534.43C752.6 485.236 821.443 457.814 893.012 457.814C964.581 457.814 1033.42 485.236 1085.36 534.43C1111.12 558.884 1131.65 588.314 1145.68 620.934C1159.72 653.553 1166.97 688.681 1167 724.185C1167.03 759.689 1159.84 794.83 1145.86 827.473C1131.88 860.117 1111.41 889.582 1085.69 914.082L621.857 1364.42C611.57 1374.41 597.789 1380 583.443 1380C569.098 1380 555.317 1374.41 545.03 1364.42L81.3107 914.082C55.5964 889.591 35.13 860.138 21.153 827.509C7.17589 794.88 -0.0205702 759.755 4.41623e-05 724.264C0.0206585 688.773 7.25792 653.656 21.2729 621.043C35.2878 588.43 55.7884 558.89 81.5312 534.43Z" fill="black" fill-opacity="0.13" style="mix-blend-mode:overlay"/>
</svg>
