<svg width="39" height="38" viewBox="0 0 39 38" fill="none" xmlns="http://www.w3.org/2000/svg">
<path d="M27.3258 3.625H11.2518C6.81308 3.625 3.2148 7.12278 3.2148 11.4375V27.0625C3.2148 31.3772 6.81308 34.875 11.2518 34.875H27.3258C31.7645 34.875 35.3628 31.3772 35.3628 27.0625V11.4375C35.3628 7.12278 31.7645 3.625 27.3258 3.625Z" stroke="#2B318A" stroke-width="2" stroke-linecap="round" stroke-linejoin="round"/>
<path d="M25.7184 18.2656C25.9168 19.566 25.6883 20.8941 25.0654 22.061C24.4425 23.2278 23.457 24.1741 22.249 24.7651C21.041 25.3562 19.6721 25.5619 18.3369 25.353C17.0017 25.1442 15.7682 24.5314 14.8119 23.6018C13.8556 22.6723 13.2253 21.4733 13.0104 20.1753C12.7955 18.8774 13.0072 17.5467 13.6152 16.3725C14.2232 15.1982 15.1967 14.2402 16.3971 13.6348C17.5975 13.0293 18.9637 12.8072 20.3015 13C21.666 13.1967 22.9293 13.8148 23.9048 14.763C24.8802 15.7112 25.516 16.9392 25.7184 18.2656Z" stroke="#2B318A" stroke-width="2" stroke-linecap="round" stroke-linejoin="round"/>
<path d="M28.1295 10.6562H28.1449" stroke="#2B318A" stroke-width="2" stroke-linecap="round" stroke-linejoin="round"/>
</svg>
