<svg width="34" height="33" viewBox="0 0 34 33" fill="none" xmlns="http://www.w3.org/2000/svg">
<path d="M12.9875 26.4471C5.60663 28.469 5.60663 23.0772 2.6543 22.4033M23.3206 30.4909V25.2744C23.376 24.6316 23.2809 23.9855 23.0417 23.3789C22.8024 22.7723 22.4245 22.2192 21.933 21.7562C26.5682 21.2845 31.4395 19.6804 31.4395 12.3206C31.4392 10.4387 30.6464 8.62886 29.2253 7.26582C29.8982 5.61931 29.8506 3.79937 29.0924 2.18406C29.0924 2.18406 27.3506 1.71228 23.3206 4.17902C19.9373 3.34171 16.3708 3.34171 12.9875 4.17902C8.95753 1.71228 7.21565 2.18406 7.21565 2.18406C6.45746 3.79937 6.40988 5.61931 7.0828 7.26582C5.6511 8.63897 4.85751 10.4651 4.86855 12.3611C4.86855 19.6669 9.7399 21.271 14.3751 21.7967C13.8894 22.2549 13.5148 22.8014 13.2758 23.4006C13.0367 23.9998 12.9385 24.6382 12.9875 25.2744V30.4909" stroke="#2B318A" stroke-width="4" stroke-linecap="round" stroke-linejoin="round"/>
</svg>
