<svg width="32" height="33" viewBox="0 0 32 33" fill="none" xmlns="http://www.w3.org/2000/svg">
<path d="M22.7176 9.33664H22.7306M9.08697 3.49493H22.0685C25.6533 3.49493 28.5593 6.40096 28.5593 9.98572V22.9673C28.5593 26.552 25.6533 29.4581 22.0685 29.4581H9.08697C5.50221 29.4581 2.59619 26.552 2.59619 22.9673V9.98572C2.59619 6.40096 5.50221 3.49493 9.08697 3.49493ZM20.7704 15.6587C20.9306 16.739 20.7461 17.8424 20.243 18.8119C19.74 19.7814 18.9441 20.5675 17.9685 21.0586C16.9929 21.5496 15.8873 21.7205 14.809 21.547C13.7306 21.3735 12.7345 20.8644 11.9622 20.0921C11.1899 19.3198 10.6808 18.3236 10.5072 17.2453C10.3337 16.167 10.5046 15.0614 10.9957 14.0858C11.4867 13.1102 12.2729 12.3143 13.2424 11.8112C14.2118 11.3082 15.3152 11.1237 16.3956 11.2839C17.4976 11.4473 18.5179 11.9608 19.3057 12.7486C20.0934 13.5364 20.607 14.5566 20.7704 15.6587Z" stroke="#F5F5F5" stroke-width="4" stroke-linecap="round" stroke-linejoin="round"/>
<path d="M22.7176 9.33664H22.7306M9.08697 3.49493H22.0685C25.6533 3.49493 28.5593 6.40096 28.5593 9.98572V22.9673C28.5593 26.552 25.6533 29.4581 22.0685 29.4581H9.08697C5.50221 29.4581 2.59619 26.552 2.59619 22.9673V9.98572C2.59619 6.40096 5.50221 3.49493 9.08697 3.49493ZM20.7704 15.6587C20.9306 16.739 20.7461 17.8424 20.243 18.8119C19.74 19.7814 18.9441 20.5675 17.9685 21.0586C16.9929 21.5496 15.8873 21.7205 14.809 21.547C13.7306 21.3735 12.7345 20.8644 11.9622 20.0921C11.1899 19.3198 10.6808 18.3236 10.5072 17.2453C10.3337 16.167 10.5046 15.0614 10.9957 14.0858C11.4867 13.1102 12.2729 12.3143 13.2424 11.8112C14.2118 11.3082 15.3152 11.1237 16.3956 11.2839C17.4976 11.4473 18.5179 11.9608 19.3057 12.7486C20.0934 13.5364 20.607 14.5566 20.7704 15.6587Z" stroke="#2B318A" stroke-width="4" stroke-linecap="round" stroke-linejoin="round"/>
</svg>
