<svg width="39" height="38" viewBox="0 0 39 38" fill="none" xmlns="http://www.w3.org/2000/svg">
<path d="M27.3258 3.625H11.2518C6.81313 3.625 3.21484 7.12278 3.21484 11.4375V27.0625C3.21484 31.3772 6.81313 34.875 11.2518 34.875H27.3258C31.7645 34.875 35.3628 31.3772 35.3628 27.0625V11.4375C35.3628 7.12278 31.7645 3.625 27.3258 3.625Z" stroke="#2B318A" stroke-width="2" stroke-linecap="round" stroke-linejoin="round"/>
<path d="M25.7184 18.2656C25.9167 19.566 25.6882 20.8941 25.0654 22.0609C24.4425 23.2278 23.457 24.1741 22.249 24.7651C21.041 25.3561 19.672 25.5619 18.3368 25.353C17.0016 25.1441 15.7682 24.5314 14.8119 23.6018C13.8556 22.6722 13.2252 21.4732 13.0104 20.1753C12.7955 18.8774 13.0072 17.5467 13.6152 16.3724C14.2232 15.1982 15.1966 14.2402 16.397 13.6347C17.5974 13.0293 18.9637 12.8072 20.3014 13C21.666 13.1967 22.9293 13.8148 23.9047 14.763C24.8802 15.7112 25.516 16.9392 25.7184 18.2656Z" stroke="#2B318A" stroke-width="2" stroke-linecap="round" stroke-linejoin="round"/>
<path d="M28.1294 10.6562H28.1448" stroke="#2B318A" stroke-width="2" stroke-linecap="round" stroke-linejoin="round"/>
</svg>
