<svg width="33" height="33" viewBox="0 0 33 33" fill="none" xmlns="http://www.w3.org/2000/svg">
<g clip-path="url(#clip0_179_397)">
<path d="M21.949 10.9178C24.1207 10.9178 26.2034 11.7805 27.739 13.3161C29.2746 14.8517 30.1373 16.9345 30.1373 19.1062V28.6593H24.6784V19.1062C24.6784 18.3823 24.3909 17.688 23.879 17.1762C23.3671 16.6643 22.6729 16.3767 21.949 16.3767C21.2251 16.3767 20.5308 16.6643 20.019 17.1762C19.5071 17.688 19.2195 18.3823 19.2195 19.1062V28.6593H13.7606V19.1062C13.7606 16.9345 14.6233 14.8517 16.1589 13.3161C17.6945 11.7805 19.7773 10.9178 21.949 10.9178Z" stroke="#F5F5F5" stroke-width="4" stroke-linecap="round" stroke-linejoin="round"/>
<path d="M21.949 10.9178C24.1207 10.9178 26.2034 11.7805 27.739 13.3161C29.2746 14.8517 30.1373 16.9345 30.1373 19.1062V28.6593H24.6784V19.1062C24.6784 18.3823 24.3909 17.688 23.879 17.1762C23.3671 16.6643 22.6729 16.3767 21.949 16.3767C21.2251 16.3767 20.5308 16.6643 20.019 17.1762C19.5071 17.688 19.2195 18.3823 19.2195 19.1062V28.6593H13.7606V19.1062C13.7606 16.9345 14.6233 14.8517 16.1589 13.3161C17.6945 11.7805 19.7773 10.9178 21.949 10.9178Z" stroke="#2B318A" stroke-width="4" stroke-linecap="round" stroke-linejoin="round"/>
<path d="M8.30169 12.2825H2.84277V28.6593H8.30169V12.2825Z" stroke="#F5F5F5" stroke-width="4" stroke-linecap="round" stroke-linejoin="round"/>
<path d="M8.30169 12.2825H2.84277V28.6593H8.30169V12.2825Z" stroke="#2B318A" stroke-width="4" stroke-linecap="round" stroke-linejoin="round"/>
<path d="M5.57223 8.18834C7.07967 8.18834 8.30169 6.96633 8.30169 5.45889C8.30169 3.95145 7.07967 2.72943 5.57223 2.72943C4.06479 2.72943 2.84277 3.95145 2.84277 5.45889C2.84277 6.96633 4.06479 8.18834 5.57223 8.18834Z" stroke="#F5F5F5" stroke-width="4" stroke-linecap="round" stroke-linejoin="round"/>
<path d="M5.57223 8.18834C7.07967 8.18834 8.30169 6.96633 8.30169 5.45889C8.30169 3.95145 7.07967 2.72943 5.57223 2.72943C4.06479 2.72943 2.84277 3.95145 2.84277 5.45889C2.84277 6.96633 4.06479 8.18834 5.57223 8.18834Z" stroke="#2B318A" stroke-width="4" stroke-linecap="round" stroke-linejoin="round"/>
</g>
<defs>
<clipPath id="clip0_179_397">
<rect width="32.7535" height="32.7535" fill="white" transform="translate(0.113281)"/>
</clipPath>
</defs>
</svg>
