<svg width="122" height="62" viewBox="0 0 122 62" fill="none" xmlns="http://www.w3.org/2000/svg">
<path d="M30.2062 43.1389C30.2062 43.6945 30.0722 44.2154 29.8043 44.7015C29.5464 45.1877 29.1346 45.5796 28.5691 45.8773C28.0135 46.1749 27.309 46.3237 26.4557 46.3237H24.7145V50.3123H22.6309V39.9242H26.4557C27.2594 39.9242 27.944 40.0631 28.5095 40.3409C29.0751 40.6188 29.4967 41.0007 29.7746 41.4869C30.0623 41.9731 30.2062 42.5237 30.2062 43.1389ZM26.3665 44.642C26.9419 44.642 27.3685 44.513 27.6464 44.2551C27.9242 43.9872 28.0631 43.6151 28.0631 43.1389C28.0631 42.1269 27.4975 41.6208 26.3665 41.6208H24.7145V44.642H26.3665ZM33.769 43.3472C34.0369 42.9107 34.3842 42.5684 34.8108 42.3203C35.2473 42.0723 35.7434 41.9483 36.299 41.9483V44.136H35.7484C35.0936 44.136 34.5975 44.2898 34.2601 44.5974C33.9327 44.9049 33.769 45.4407 33.769 46.2047V50.3123H31.6855V42.0673H33.769V43.3472ZM41.3635 50.4462C40.5698 50.4462 39.8554 50.2726 39.2204 49.9253C38.5855 49.5681 38.0844 49.0671 37.7173 48.4222C37.3601 47.7773 37.1815 47.0331 37.1815 46.1898C37.1815 45.3464 37.3651 44.6023 37.7322 43.9574C38.1092 43.3125 38.6202 42.8164 39.2651 42.4691C39.91 42.112 40.6293 41.9334 41.4231 41.9334C42.2168 41.9334 42.9361 42.112 43.581 42.4691C44.2259 42.8164 44.732 43.3125 45.0991 43.9574C45.4761 44.6023 45.6646 45.3464 45.6646 46.1898C45.6646 47.0331 45.4711 47.7773 45.0842 48.4222C44.7071 49.0671 44.1912 49.5681 43.5364 49.9253C42.8915 50.2726 42.1672 50.4462 41.3635 50.4462ZM41.3635 48.6305C41.7406 48.6305 42.0928 48.5412 42.4202 48.3626C42.7575 48.1741 43.0254 47.8963 43.2239 47.5292C43.4223 47.1621 43.5215 46.7156 43.5215 46.1898C43.5215 45.406 43.3131 44.8057 42.8964 44.389C42.4896 43.9624 41.9886 43.749 41.3933 43.749C40.798 43.749 40.2969 43.9624 39.8902 44.389C39.4933 44.8057 39.2949 45.406 39.2949 46.1898C39.2949 46.9736 39.4883 47.5788 39.8753 48.0055C40.2721 48.4222 40.7682 48.6305 41.3635 48.6305ZM51.7619 41.9483C52.7442 41.9483 53.5379 42.2608 54.1431 42.8859C54.7483 43.501 55.0509 44.3642 55.0509 45.4754V50.3123H52.9674V45.7582C52.9674 45.1034 52.8037 44.6023 52.4763 44.2551C52.1488 43.8979 51.7024 43.7193 51.1368 43.7193C50.5614 43.7193 50.105 43.8979 49.7676 44.2551C49.4402 44.6023 49.2765 45.1034 49.2765 45.7582V50.3123H47.193V42.0673H49.2765V43.0942C49.5543 42.737 49.9065 42.4592 50.3332 42.2608C50.7697 42.0524 51.246 41.9483 51.7619 41.9483ZM59.4582 43.7788V47.7673C59.4582 48.0451 59.5226 48.2485 59.6516 48.3775C59.7905 48.4966 60.0187 48.5561 60.3362 48.5561H61.3036V50.3123H59.9939C58.2378 50.3123 57.3597 49.459 57.3597 47.7525V43.7788H56.3775V42.0673H57.3597V40.0284H59.4582V42.0673H61.3036V43.7788H59.4582ZM66.4633 50.4462C65.6696 50.4462 64.9552 50.2726 64.3202 49.9253C63.6852 49.5681 63.1842 49.0671 62.8171 48.4222C62.4599 47.7773 62.2813 47.0331 62.2813 46.1898C62.2813 45.3464 62.4649 44.6023 62.832 43.9574C63.209 43.3125 63.72 42.8164 64.3649 42.4691C65.0098 42.112 65.7291 41.9334 66.5228 41.9334C67.3166 41.9334 68.0359 42.112 68.6808 42.4691C69.3257 42.8164 69.8317 43.3125 70.1988 43.9574C70.5759 44.6023 70.7644 45.3464 70.7644 46.1898C70.7644 47.0331 70.5709 47.7773 70.1839 48.4222C69.8069 49.0671 69.291 49.5681 68.6362 49.9253C67.9913 50.2726 67.267 50.4462 66.4633 50.4462ZM66.4633 48.6305C66.8403 48.6305 67.1926 48.5412 67.52 48.3626C67.8573 48.1741 68.1252 47.8963 68.3236 47.5292C68.5221 47.1621 68.6213 46.7156 68.6213 46.1898C68.6213 45.406 68.4129 44.8057 67.9962 44.389C67.5894 43.9624 67.0884 43.749 66.4931 43.749C65.8978 43.749 65.3967 43.9624 64.9899 44.389C64.5931 44.8057 64.3946 45.406 64.3946 46.1898C64.3946 46.9736 64.5881 47.5788 64.9751 48.0055C65.3719 48.4222 65.868 48.6305 66.4633 48.6305ZM81.1967 50.3123L78.9048 46.2642H77.9225V50.3123H75.839V39.9242H79.7382C80.5419 39.9242 81.2265 40.0681 81.792 40.3558C82.3575 40.6336 82.7792 41.0156 83.057 41.5018C83.3447 41.978 83.4886 42.5138 83.4886 43.1091C83.4886 43.7937 83.2902 44.4138 82.8933 44.9694C82.4964 45.5151 81.9061 45.8921 81.1223 46.1005L83.6077 50.3123H81.1967ZM77.9225 44.7015H79.6638C80.2293 44.7015 80.651 44.5676 80.9288 44.2997C81.2066 44.0219 81.3455 43.6399 81.3455 43.1537C81.3455 42.6775 81.2066 42.3104 80.9288 42.0524C80.651 41.7846 80.2293 41.6506 79.6638 41.6506H77.9225V44.7015ZM93.0376 46.0112C93.0376 46.3088 93.0178 46.5767 92.9781 46.8149H86.9507C87.0003 47.4102 87.2086 47.8765 87.5757 48.2138C87.9428 48.5512 88.3943 48.7198 88.93 48.7198C89.7039 48.7198 90.2546 48.3874 90.582 47.7227H92.8293C92.5911 48.5164 92.1347 49.1713 91.4601 49.6872C90.7854 50.1932 89.9569 50.4462 88.9747 50.4462C88.1809 50.4462 87.4666 50.2726 86.8316 49.9253C86.2065 49.5681 85.7154 49.0671 85.3582 48.4222C85.011 47.7773 84.8373 47.0331 84.8373 46.1898C84.8373 45.3365 85.011 44.5874 85.3582 43.9425C85.7055 43.2976 86.1916 42.8015 86.8167 42.4543C87.4418 42.107 88.1611 41.9334 88.9747 41.9334C89.7585 41.9334 90.458 42.102 91.0731 42.4394C91.6982 42.7767 92.1794 43.2579 92.5167 43.883C92.864 44.4981 93.0376 45.2075 93.0376 46.0112ZM90.8796 45.4159C90.8697 44.8801 90.6763 44.4535 90.2992 44.136C89.9222 43.8086 89.4608 43.6449 88.9152 43.6449C88.3992 43.6449 87.9627 43.8036 87.6055 44.1211C87.2582 44.4287 87.0449 44.8603 86.9655 45.4159H90.8796ZM94.0227 46.1898C94.0227 45.3365 94.1963 44.5924 94.5435 43.9574C94.8908 43.3125 95.372 42.8164 95.9872 42.4691C96.6023 42.112 97.3067 41.9334 98.1005 41.9334C99.1224 41.9334 99.9658 42.1913 100.631 42.7073C101.305 43.2133 101.757 43.9276 101.985 44.8504H99.7376C99.6185 44.4932 99.4151 44.2154 99.1274 44.0169C98.8496 43.8086 98.5023 43.7044 98.0856 43.7044C97.4903 43.7044 97.019 43.9227 96.6718 44.3592C96.3245 44.7859 96.1509 45.3961 96.1509 46.1898C96.1509 46.9736 96.3245 47.5838 96.6718 48.0203C97.019 48.447 97.4903 48.6603 98.0856 48.6603C98.9289 48.6603 99.4796 48.2833 99.7376 47.5292H101.985C101.757 48.4222 101.305 49.1316 100.631 49.6574C99.9558 50.1833 99.1125 50.4462 98.1005 50.4462C97.3067 50.4462 96.6023 50.2726 95.9872 49.9253C95.372 49.5681 94.8908 49.072 94.5435 48.4371C94.1963 47.7921 94.0227 47.0431 94.0227 46.1898ZM104.568 41.0851C104.201 41.0851 103.893 40.971 103.645 40.7428C103.407 40.5047 103.288 40.212 103.288 39.8647C103.288 39.5174 103.407 39.2297 103.645 39.0015C103.893 38.7634 104.201 38.6443 104.568 38.6443C104.935 38.6443 105.238 38.7634 105.476 39.0015C105.724 39.2297 105.848 39.5174 105.848 39.8647C105.848 40.212 105.724 40.5047 105.476 40.7428C105.238 40.971 104.935 41.0851 104.568 41.0851ZM105.595 42.0673V50.3123H103.511V42.0673H105.595ZM111.433 43.7788H109.99V50.3123H107.877V43.7788H106.939V42.0673H107.877V41.6506C107.877 40.6386 108.164 39.8945 108.74 39.4182C109.315 38.942 110.183 38.7187 111.344 38.7485V40.5047C110.838 40.4947 110.486 40.5791 110.288 40.7577C110.089 40.9362 109.99 41.2587 109.99 41.725V42.0673H111.433V43.7788ZM120.448 46.0112C120.448 46.3088 120.428 46.5767 120.389 46.8149H114.361C114.411 47.4102 114.619 47.8765 114.986 48.2138C115.353 48.5512 115.805 48.7198 116.341 48.7198C117.115 48.7198 117.665 48.3874 117.993 47.7227H120.24C120.002 48.5164 119.545 49.1713 118.871 49.6872C118.196 50.1932 117.368 50.4462 116.385 50.4462C115.592 50.4462 114.877 50.2726 114.242 49.9253C113.617 49.5681 113.126 49.0671 112.769 48.4222C112.422 47.7773 112.248 47.0331 112.248 46.1898C112.248 45.3365 112.422 44.5874 112.769 43.9425C113.116 43.2976 113.602 42.8015 114.227 42.4543C114.852 42.107 115.572 41.9334 116.385 41.9334C117.169 41.9334 117.869 42.102 118.484 42.4394C119.109 42.7767 119.59 43.2579 119.927 43.883C120.275 44.4981 120.448 45.2075 120.448 46.0112ZM118.29 45.4159C118.28 44.8801 118.087 44.4535 117.71 44.136C117.333 43.8086 116.871 43.6449 116.326 43.6449C115.81 43.6449 115.373 43.8036 115.016 44.1211C114.669 44.4287 114.456 44.8603 114.376 45.4159H118.29Z" fill="#030F41"/>
<path d="M26.4868 55.538L25.0092 59.5667H24.028L22.5504 55.538H23.4162L24.5244 58.7413L25.6268 55.538H26.4868ZM28.3911 59.6186C28.0833 59.6186 27.8062 59.5513 27.56 59.4166C27.3137 59.2781 27.1194 59.0837 26.977 58.8336C26.8385 58.5835 26.7692 58.2949 26.7692 57.9679C26.7692 57.6408 26.8404 57.3522 26.9828 57.1021C27.129 56.852 27.3272 56.6596 27.5773 56.5249C27.8274 56.3864 28.1064 56.3171 28.4142 56.3171C28.722 56.3171 29.001 56.3864 29.2511 56.5249C29.5012 56.6596 29.6974 56.852 29.8398 57.1021C29.986 57.3522 30.0591 57.6408 30.0591 57.9679C30.0591 58.2949 29.9841 58.5835 29.834 58.8336C29.6878 59.0837 29.4877 59.2781 29.2338 59.4166C28.9837 59.5513 28.7028 59.6186 28.3911 59.6186ZM28.3911 58.9144C28.5373 58.9144 28.6739 58.8798 28.8009 58.8105C28.9317 58.7374 29.0356 58.6297 29.1126 58.4873C29.1895 58.345 29.228 58.1718 29.228 57.9679C29.228 57.6639 29.1472 57.4311 28.9856 57.2695C28.8278 57.104 28.6335 57.0213 28.4026 57.0213C28.1718 57.0213 27.9775 57.104 27.8197 57.2695C27.6658 57.4311 27.5888 57.6639 27.5888 57.9679C27.5888 58.2719 27.6639 58.5066 27.8139 58.672C27.9678 58.8336 28.1602 58.9144 28.3911 58.9144ZM30.4441 57.9679C30.4441 57.637 30.5114 57.3484 30.6461 57.1021C30.7808 56.852 30.9674 56.6596 31.206 56.5249C31.4445 56.3864 31.7177 56.3171 32.0255 56.3171C32.4219 56.3171 32.7489 56.4172 33.0067 56.6173C33.2684 56.8135 33.4435 57.0906 33.532 57.4484H32.6604C32.6143 57.3099 32.5354 57.2022 32.4238 57.1252C32.3161 57.0444 32.1814 57.004 32.0198 57.004C31.7889 57.004 31.6061 57.0886 31.4715 57.2579C31.3368 57.4234 31.2694 57.66 31.2694 57.9679C31.2694 58.2719 31.3368 58.5085 31.4715 58.6778C31.6061 58.8433 31.7889 58.926 32.0198 58.926C32.3468 58.926 32.5604 58.7798 32.6604 58.4873H33.532C33.4435 58.8336 33.2684 59.1088 33.0067 59.3127C32.7451 59.5166 32.418 59.6186 32.0255 59.6186C31.7177 59.6186 31.4445 59.5513 31.206 59.4166C30.9674 59.2781 30.7808 59.0857 30.6461 58.8394C30.5114 58.5893 30.4441 58.2988 30.4441 57.9679ZM37.0964 57.8986C37.0964 58.014 37.0887 58.1179 37.0733 58.2103H34.7358C34.755 58.4412 34.8358 58.622 34.9782 58.7528C35.1205 58.8837 35.2956 58.9491 35.5034 58.9491C35.8035 58.9491 36.0171 58.8202 36.1441 58.5624H37.0156C36.9232 58.8702 36.7462 59.1241 36.4846 59.3242C36.2229 59.5205 35.9016 59.6186 35.5207 59.6186C35.2129 59.6186 34.9358 59.5513 34.6896 59.4166C34.4472 59.2781 34.2567 59.0837 34.1182 58.8336C33.9835 58.5835 33.9162 58.2949 33.9162 57.9679C33.9162 57.637 33.9835 57.3464 34.1182 57.0963C34.2528 56.8462 34.4414 56.6538 34.6838 56.5192C34.9262 56.3845 35.2052 56.3171 35.5207 56.3171C35.8247 56.3171 36.096 56.3826 36.3345 56.5134C36.5769 56.6442 36.7636 56.8308 36.8944 57.0733C37.0291 57.3118 37.0964 57.5869 37.0964 57.8986ZM36.2595 57.6677C36.2556 57.46 36.1806 57.2945 36.0344 57.1714C35.8882 57.0444 35.7093 56.9809 35.4976 56.9809C35.2975 56.9809 35.1282 57.0425 34.9897 57.1656C34.855 57.2849 34.7723 57.4523 34.7415 57.6677H36.2595ZM35.5092 55.6476L34.6492 56.1325V55.5437L35.5092 55.0762L36.3634 55.5437V56.1325L35.5092 55.6476ZM40.8334 56.3229C41.2144 56.3229 41.5222 56.4441 41.7569 56.6865C41.9916 56.9251 42.109 57.2599 42.109 57.6908V59.5667H41.3009V57.8005C41.3009 57.5465 41.2375 57.3522 41.1105 57.2175C40.9835 57.079 40.8103 57.0098 40.591 57.0098C40.3678 57.0098 40.1908 57.079 40.06 57.2175C39.933 57.3522 39.8696 57.5465 39.8696 57.8005V59.5667H39.0615V56.3691H39.8696V56.7673C39.9773 56.6288 40.1139 56.5211 40.2793 56.4441C40.4487 56.3633 40.6333 56.3229 40.8334 56.3229ZM44.2973 59.6186C43.9894 59.6186 43.7124 59.5513 43.4661 59.4166C43.2199 59.2781 43.0255 59.0837 42.8832 58.8336C42.7447 58.5835 42.6754 58.2949 42.6754 57.9679C42.6754 57.6408 42.7466 57.3522 42.8889 57.1021C43.0352 56.852 43.2333 56.6596 43.4834 56.5249C43.7335 56.3864 44.0125 56.3171 44.3203 56.3171C44.6282 56.3171 44.9071 56.3864 45.1572 56.5249C45.4074 56.6596 45.6036 56.852 45.746 57.1021C45.8922 57.3522 45.9653 57.6408 45.9653 57.9679C45.9653 58.2949 45.8903 58.5835 45.7402 58.8336C45.594 59.0837 45.3939 59.2781 45.1399 59.4166C44.8898 59.5513 44.6089 59.6186 44.2973 59.6186ZM44.2973 58.9144C44.4435 58.9144 44.5801 58.8798 44.7071 58.8105C44.8379 58.7374 44.9418 58.6297 45.0187 58.4873C45.0957 58.345 45.1342 58.1718 45.1342 57.9679C45.1342 57.6639 45.0534 57.4311 44.8917 57.2695C44.734 57.104 44.5397 57.0213 44.3088 57.0213C44.0779 57.0213 43.8836 57.104 43.7259 57.2695C43.5719 57.4311 43.495 57.6639 43.495 57.9679C43.495 58.2719 43.57 58.5066 43.7201 58.672C43.874 58.8336 44.0664 58.9144 44.2973 58.9144ZM47.7255 57.9679C47.7255 57.637 47.7929 57.3484 47.9276 57.1021C48.0622 56.852 48.2489 56.6596 48.4874 56.5249C48.726 56.3864 48.9992 56.3171 49.307 56.3171C49.7033 56.3171 50.0304 56.4172 50.2882 56.6173C50.5499 56.8135 50.7249 57.0906 50.8134 57.4484H49.9419C49.8957 57.3099 49.8168 57.2022 49.7053 57.1252C49.5975 57.0444 49.4628 57.004 49.3012 57.004C49.0704 57.004 48.8876 57.0886 48.7529 57.2579C48.6182 57.4234 48.5509 57.66 48.5509 57.9679C48.5509 58.2719 48.6182 58.5085 48.7529 58.6778C48.8876 58.8433 49.0704 58.926 49.3012 58.926C49.6283 58.926 49.8419 58.7798 49.9419 58.4873H50.8134C50.7249 58.8336 50.5499 59.1088 50.2882 59.3127C50.0266 59.5166 49.6995 59.6186 49.307 59.6186C48.9992 59.6186 48.726 59.5513 48.4874 59.4166C48.2489 59.2781 48.0622 59.0857 47.9276 58.8394C47.7929 58.5893 47.7255 58.2988 47.7255 57.9679ZM52.8253 59.6186C52.5174 59.6186 52.2404 59.5513 51.9941 59.4166C51.7479 59.2781 51.5535 59.0837 51.4112 58.8336C51.2727 58.5835 51.2034 58.2949 51.2034 57.9679C51.2034 57.6408 51.2746 57.3522 51.4169 57.1021C51.5632 56.852 51.7613 56.6596 52.0114 56.5249C52.2615 56.3864 52.5405 56.3171 52.8483 56.3171C53.1562 56.3171 53.4351 56.3864 53.6852 56.5249C53.9354 56.6596 54.1316 56.852 54.274 57.1021C54.4202 57.3522 54.4933 57.6408 54.4933 57.9679C54.4933 58.2949 54.4183 58.5835 54.2682 58.8336C54.122 59.0837 53.9219 59.2781 53.6679 59.4166C53.4178 59.5513 53.1369 59.6186 52.8253 59.6186ZM52.8253 58.9144C52.9715 58.9144 53.1081 58.8798 53.2351 58.8105C53.3659 58.7374 53.4698 58.6297 53.5467 58.4873C53.6237 58.345 53.6622 58.1718 53.6622 57.9679C53.6622 57.6639 53.5814 57.4311 53.4197 57.2695C53.262 57.104 53.0677 57.0213 52.8368 57.0213C52.6059 57.0213 52.4116 57.104 52.2539 57.2695C52.0999 57.4311 52.023 57.6639 52.023 57.9679C52.023 58.2719 52.098 58.5066 52.2481 58.672C52.402 58.8336 52.5944 58.9144 52.8253 58.9144ZM56.858 56.3229C57.2389 56.3229 57.5467 56.4441 57.7814 56.6865C58.0162 56.9251 58.1335 57.2599 58.1335 57.6908V59.5667H57.3255V57.8005C57.3255 57.5465 57.262 57.3522 57.135 57.2175C57.008 57.079 56.8349 57.0098 56.6155 57.0098C56.3924 57.0098 56.2154 57.079 56.0845 57.2175C55.9576 57.3522 55.8941 57.5465 55.8941 57.8005V59.5667H55.086V56.3691H55.8941V56.7673C56.0018 56.6288 56.1384 56.5211 56.3039 56.4441C56.4732 56.3633 56.6579 56.3229 56.858 56.3229ZM59.8427 57.0328V58.5797C59.8427 58.6874 59.8677 58.7663 59.9178 58.8163C59.9716 58.8625 60.0601 58.8856 60.1833 58.8856H60.5584V59.5667H60.0505C59.3694 59.5667 59.0289 59.2357 59.0289 58.5739V57.0328H58.648V56.3691H59.0289V55.5784H59.8427V56.3691H60.5584V57.0328H59.8427ZM61.9477 56.8655C62.0515 56.6962 62.1862 56.5634 62.3517 56.4672C62.521 56.371 62.7134 56.3229 62.9289 56.3229V57.1714H62.7153C62.4613 57.1714 62.269 57.231 62.1381 57.3503C62.0111 57.4696 61.9477 57.6774 61.9477 57.9736V59.5667H61.1396V56.3691H61.9477V56.8655ZM64.893 59.6186C64.5851 59.6186 64.3081 59.5513 64.0618 59.4166C63.8156 59.2781 63.6213 59.0837 63.4789 58.8336C63.3404 58.5835 63.2711 58.2949 63.2711 57.9679C63.2711 57.6408 63.3423 57.3522 63.4847 57.1021C63.6309 56.852 63.829 56.6596 64.0791 56.5249C64.3293 56.3864 64.6082 56.3171 64.9161 56.3171C65.2239 56.3171 65.5029 56.3864 65.753 56.5249C66.0031 56.6596 66.1993 56.852 66.3417 57.1021C66.4879 57.3522 66.561 57.6408 66.561 57.9679C66.561 58.2949 66.486 58.5835 66.3359 58.8336C66.1897 59.0837 65.9896 59.2781 65.7356 59.4166C65.4855 59.5513 65.2046 59.6186 64.893 59.6186ZM64.893 58.9144C65.0392 58.9144 65.1758 58.8798 65.3028 58.8105C65.4336 58.7374 65.5375 58.6297 65.6144 58.4873C65.6914 58.345 65.7299 58.1718 65.7299 57.9679C65.7299 57.6639 65.6491 57.4311 65.4875 57.2695C65.3297 57.104 65.1354 57.0213 64.9045 57.0213C64.6736 57.0213 64.4793 57.104 64.3216 57.2695C64.1676 57.4311 64.0907 57.6639 64.0907 57.9679C64.0907 58.2719 64.1657 58.5066 64.3158 58.672C64.4697 58.8336 64.6621 58.9144 64.893 58.9144ZM67.9618 55.2955V59.5667H67.1537V55.2955H67.9618ZM71.7326 57.8986C71.7326 58.014 71.7249 58.1179 71.7095 58.2103H69.3719C69.3912 58.4412 69.472 58.622 69.6144 58.7528C69.7567 58.8837 69.9318 58.9491 70.1396 58.9491C70.4397 58.9491 70.6533 58.8202 70.7803 58.5624H71.6518C71.5594 58.8702 71.3824 59.1241 71.1208 59.3242C70.8591 59.5205 70.5378 59.6186 70.1569 59.6186C69.8491 59.6186 69.572 59.5513 69.3258 59.4166C69.0834 59.2781 68.8929 59.0837 68.7544 58.8336C68.6197 58.5835 68.5524 58.2949 68.5524 57.9679C68.5524 57.637 68.6197 57.3464 68.7544 57.0963C68.889 56.8462 69.0776 56.6538 69.32 56.5192C69.5624 56.3845 69.8414 56.3171 70.1569 56.3171C70.4609 56.3171 70.7322 56.3826 70.9707 56.5134C71.2131 56.6442 71.3998 56.8308 71.5306 57.0733C71.6653 57.3118 71.7326 57.5869 71.7326 57.8986ZM70.8957 57.6677C70.8918 57.46 70.8168 57.2945 70.6706 57.1714C70.5244 57.0444 70.3454 56.9809 70.1338 56.9809C69.9337 56.9809 69.7644 57.0425 69.6259 57.1656C69.4912 57.2849 69.4085 57.4523 69.3777 57.6677H70.8957ZM73.4899 57.9563C73.4899 57.6331 73.5534 57.3464 73.6804 57.0963C73.8112 56.8462 73.9882 56.6538 74.2114 56.5192C74.4346 56.3845 74.6827 56.3171 74.9559 56.3171C75.1637 56.3171 75.3619 56.3633 75.5504 56.4557C75.739 56.5442 75.889 56.6635 76.0006 56.8135V55.2955H76.8202V59.5667H76.0006V59.0934C75.9006 59.2511 75.7601 59.3781 75.5793 59.4743C75.3984 59.5705 75.1887 59.6186 74.9502 59.6186C74.6808 59.6186 74.4346 59.5493 74.2114 59.4108C73.9882 59.2723 73.8112 59.078 73.6804 58.8279C73.5534 58.5739 73.4899 58.2834 73.4899 57.9563ZM76.0064 57.9679C76.0064 57.7716 75.9679 57.6043 75.891 57.4657C75.814 57.3234 75.7101 57.2156 75.5793 57.1425C75.4485 57.0656 75.308 57.0271 75.158 57.0271C75.0079 57.0271 74.8694 57.0636 74.7424 57.1367C74.6154 57.2098 74.5115 57.3176 74.4307 57.46C74.3538 57.5985 74.3153 57.7639 74.3153 57.9563C74.3153 58.1487 74.3538 58.318 74.4307 58.4642C74.5115 58.6066 74.6154 58.7163 74.7424 58.7932C74.8732 58.8702 75.0117 58.9087 75.158 58.9087C75.308 58.9087 75.4485 58.8721 75.5793 58.799C75.7101 58.722 75.814 58.6143 75.891 58.4758C75.9679 58.3334 76.0064 58.1641 76.0064 57.9679ZM77.4016 57.9563C77.4016 57.6331 77.4651 57.3464 77.5921 57.0963C77.7229 56.8462 77.898 56.6538 78.1173 56.5192C78.3405 56.3845 78.5887 56.3171 78.8619 56.3171C79.1005 56.3171 79.3082 56.3652 79.4852 56.4614C79.6661 56.5576 79.8104 56.6788 79.9181 56.8251V56.3691H80.7319V59.5667H79.9181V59.0991C79.8142 59.2492 79.6699 59.3743 79.4852 59.4743C79.3044 59.5705 79.0947 59.6186 78.8561 59.6186C78.5868 59.6186 78.3405 59.5493 78.1173 59.4108C77.898 59.2723 77.7229 59.078 77.5921 58.8279C77.4651 58.5739 77.4016 58.2834 77.4016 57.9563ZM79.9181 57.9679C79.9181 57.7716 79.8796 57.6043 79.8027 57.4657C79.7257 57.3234 79.6218 57.2156 79.491 57.1425C79.3602 57.0656 79.2197 57.0271 79.0697 57.0271C78.9196 57.0271 78.7811 57.0636 78.6541 57.1367C78.5271 57.2098 78.4232 57.3176 78.3424 57.46C78.2655 57.5985 78.227 57.7639 78.227 57.9563C78.227 58.1487 78.2655 58.318 78.3424 58.4642C78.4232 58.6066 78.5271 58.7163 78.6541 58.7932C78.7849 58.8702 78.9235 58.9087 79.0697 58.9087C79.2197 58.9087 79.3602 58.8721 79.491 58.799C79.6218 58.722 79.7257 58.6143 79.8027 58.4758C79.8796 58.3334 79.9181 58.1641 79.9181 57.9679ZM84.1201 59.6186C83.8584 59.6186 83.6237 59.5724 83.4159 59.4801C83.2081 59.3839 83.0427 59.255 82.9195 59.0934C82.8002 58.9318 82.7348 58.7528 82.7233 58.5566H83.5371C83.5525 58.6797 83.6121 58.7817 83.716 58.8625C83.8238 58.9433 83.9565 58.9837 84.1143 58.9837C84.2682 58.9837 84.3875 58.9529 84.4721 58.8914C84.5606 58.8298 84.6049 58.7509 84.6049 58.6547C84.6049 58.5508 84.551 58.4739 84.4433 58.4238C84.3394 58.37 84.172 58.3123 83.9411 58.2507C83.7026 58.193 83.5063 58.1333 83.3524 58.0718C83.2023 58.0102 83.0715 57.9159 82.9599 57.7889C82.8522 57.662 82.7983 57.4907 82.7983 57.2753C82.7983 57.0983 82.8483 56.9367 82.9484 56.7904C83.0523 56.6442 83.1985 56.5288 83.387 56.4441C83.5794 56.3595 83.8045 56.3171 84.0623 56.3171C84.4433 56.3171 84.7473 56.4133 84.9743 56.6057C85.2013 56.7943 85.3264 57.0502 85.3494 57.3734H84.576C84.5645 57.2464 84.5106 57.1464 84.4144 57.0733C84.3221 56.9963 84.197 56.9578 84.0392 56.9578C83.893 56.9578 83.7795 56.9847 83.6987 57.0386C83.6218 57.0925 83.5833 57.1675 83.5833 57.2637C83.5833 57.3715 83.6371 57.4542 83.7449 57.5119C83.8526 57.5658 84.02 57.6216 84.247 57.6793C84.4779 57.737 84.6684 57.7966 84.8184 57.8582C84.9685 57.9198 85.0974 58.016 85.2051 58.1468C85.3167 58.2738 85.3744 58.4431 85.3783 58.6547C85.3783 58.8394 85.3264 59.0049 85.2225 59.1511C85.1224 59.2973 84.9762 59.4127 84.7838 59.4974C84.5953 59.5782 84.374 59.6186 84.1201 59.6186ZM89.0602 56.3691V59.5667H88.2464V59.1626C88.1425 59.3011 88.0059 59.4108 87.8366 59.4916C87.6712 59.5686 87.4903 59.6071 87.2941 59.6071C87.044 59.6071 86.8227 59.5551 86.6303 59.4512C86.4379 59.3435 86.2859 59.1876 86.1743 58.9837C86.0666 58.7759 86.0127 58.5297 86.0127 58.2449V56.3691H86.8208V58.1295C86.8208 58.3834 86.8843 58.5797 87.0113 58.7182C87.1382 58.8529 87.3114 58.9202 87.5307 58.9202C87.7539 58.9202 87.929 58.8529 88.0559 58.7182C88.1829 58.5797 88.2464 58.3834 88.2464 58.1295V56.3691H89.0602ZM89.6497 57.9563C89.6497 57.6331 89.7132 57.3464 89.8402 57.0963C89.971 56.8462 90.1461 56.6538 90.3654 56.5192C90.5886 56.3845 90.8368 56.3171 91.11 56.3171C91.3485 56.3171 91.5563 56.3652 91.7333 56.4614C91.9142 56.5576 92.0585 56.6788 92.1662 56.8251V56.3691H92.98V59.5667H92.1662V59.0991C92.0623 59.2492 91.918 59.3743 91.7333 59.4743C91.5525 59.5705 91.3428 59.6186 91.1042 59.6186C90.8348 59.6186 90.5886 59.5493 90.3654 59.4108C90.1461 59.2723 89.971 59.078 89.8402 58.8279C89.7132 58.5739 89.6497 58.2834 89.6497 57.9563ZM92.1662 57.9679C92.1662 57.7716 92.1277 57.6043 92.0508 57.4657C91.9738 57.3234 91.8699 57.2156 91.7391 57.1425C91.6083 57.0656 91.4678 57.0271 91.3178 57.0271C91.1677 57.0271 91.0292 57.0636 90.9022 57.1367C90.7752 57.2098 90.6713 57.3176 90.5905 57.46C90.5136 57.5985 90.4751 57.7639 90.4751 57.9563C90.4751 58.1487 90.5136 58.318 90.5905 58.4642C90.6713 58.6066 90.7752 58.7163 90.9022 58.7932C91.033 58.8702 91.1715 58.9087 91.3178 58.9087C91.4678 58.9087 91.6083 58.8721 91.7391 58.799C91.8699 58.722 91.9738 58.6143 92.0508 58.4758C92.1277 58.3334 92.1662 58.1641 92.1662 57.9679ZM96.3681 59.6186C96.1065 59.6186 95.8718 59.5724 95.664 59.4801C95.4562 59.3839 95.2907 59.255 95.1676 59.0934C95.0483 58.9318 94.9829 58.7528 94.9714 58.5566H95.7852C95.8006 58.6797 95.8602 58.7817 95.9641 58.8625C96.0719 58.9433 96.2046 58.9837 96.3624 58.9837C96.5163 58.9837 96.6356 58.9529 96.7202 58.8914C96.8087 58.8298 96.853 58.7509 96.853 58.6547C96.853 58.5508 96.7991 58.4739 96.6914 58.4238C96.5875 58.37 96.4201 58.3123 96.1892 58.2507C95.9506 58.193 95.7544 58.1333 95.6005 58.0718C95.4504 58.0102 95.3196 57.9159 95.208 57.7889C95.1003 57.662 95.0464 57.4907 95.0464 57.2753C95.0464 57.0983 95.0964 56.9367 95.1965 56.7904C95.3004 56.6442 95.4466 56.5288 95.6351 56.4441C95.8275 56.3595 96.0526 56.3171 96.3104 56.3171C96.6914 56.3171 96.9953 56.4133 97.2224 56.6057C97.4494 56.7943 97.5744 57.0502 97.5975 57.3734H96.8241C96.8126 57.2464 96.7587 57.1464 96.6625 57.0733C96.5701 56.9963 96.4451 56.9578 96.2873 56.9578C96.1411 56.9578 96.0276 56.9847 95.9468 57.0386C95.8698 57.0925 95.8314 57.1675 95.8314 57.2637C95.8314 57.3715 95.8852 57.4542 95.993 57.5119C96.1007 57.5658 96.2681 57.6216 96.4951 57.6793C96.726 57.737 96.9165 57.7966 97.0665 57.8582C97.2166 57.9198 97.3455 58.016 97.4532 58.1468C97.5648 58.2738 97.6225 58.4431 97.6264 58.6547C97.6264 58.8394 97.5744 59.0049 97.4705 59.1511C97.3705 59.2973 97.2243 59.4127 97.0319 59.4974C96.8433 59.5782 96.6221 59.6186 96.3681 59.6186ZM98.0819 57.9563C98.0819 57.6331 98.1454 57.3464 98.2724 57.0963C98.4032 56.8462 98.5783 56.6538 98.7976 56.5192C99.0208 56.3845 99.269 56.3171 99.5421 56.3171C99.7807 56.3171 99.9885 56.3652 100.165 56.4614C100.346 56.5576 100.491 56.6788 100.598 56.8251V56.3691H101.412V59.5667H100.598V59.0991C100.494 59.2492 100.35 59.3743 100.165 59.4743C99.9847 59.5705 99.7749 59.6186 99.5364 59.6186C99.267 59.6186 99.0208 59.5493 98.7976 59.4108C98.5783 59.2723 98.4032 59.078 98.2724 58.8279C98.1454 58.5739 98.0819 58.2834 98.0819 57.9563ZM100.598 57.9679C100.598 57.7716 100.56 57.6043 100.483 57.4657C100.406 57.3234 100.302 57.2156 100.171 57.1425C100.04 57.0656 99.9 57.0271 99.7499 57.0271C99.5999 57.0271 99.4613 57.0636 99.3344 57.1367C99.2074 57.2098 99.1035 57.3176 99.0227 57.46C98.9457 57.5985 98.9073 57.7639 98.9073 57.9563C98.9073 58.1487 98.9457 58.318 99.0227 58.4642C99.1035 58.6066 99.2074 58.7163 99.3344 58.7932C99.4652 58.8702 99.6037 58.9087 99.7499 58.9087C99.9 58.9087 100.04 58.8721 100.171 58.799C100.302 58.722 100.406 58.6143 100.483 58.4758C100.56 58.3334 100.598 58.1641 100.598 57.9679ZM105.22 56.3691V59.5667H104.406V59.1626C104.302 59.3011 104.166 59.4108 103.996 59.4916C103.831 59.5686 103.65 59.6071 103.454 59.6071C103.204 59.6071 102.983 59.5551 102.79 59.4512C102.598 59.3435 102.446 59.1876 102.334 58.9837C102.226 58.7759 102.173 58.5297 102.173 58.2449V56.3691H102.981V58.1295C102.981 58.3834 103.044 58.5797 103.171 58.7182C103.298 58.8529 103.471 58.9202 103.691 58.9202C103.914 58.9202 104.089 58.8529 104.216 58.7182C104.343 58.5797 104.406 58.3834 104.406 58.1295V56.3691H105.22ZM104.343 55.538L103.015 56.144V55.5668L104.343 54.88V55.538ZM105.81 57.9563C105.81 57.6331 105.873 57.3464 106 57.0963C106.131 56.8462 106.308 56.6538 106.531 56.5192C106.754 56.3845 107.002 56.3171 107.276 56.3171C107.483 56.3171 107.681 56.3633 107.87 56.4557C108.059 56.5442 108.209 56.6635 108.32 56.8135V55.2955H109.14V59.5667H108.32V59.0934C108.22 59.2511 108.08 59.3781 107.899 59.4743C107.718 59.5705 107.508 59.6186 107.27 59.6186C107 59.6186 106.754 59.5493 106.531 59.4108C106.308 59.2723 106.131 59.078 106 58.8279C105.873 58.5739 105.81 58.2834 105.81 57.9563ZM108.326 57.9679C108.326 57.7716 108.288 57.6043 108.211 57.4657C108.134 57.3234 108.03 57.2156 107.899 57.1425C107.768 57.0656 107.628 57.0271 107.478 57.0271C107.327 57.0271 107.189 57.0636 107.062 57.1367C106.935 57.2098 106.831 57.3176 106.75 57.46C106.673 57.5985 106.635 57.7639 106.635 57.9563C106.635 58.1487 106.673 58.318 106.75 58.4642C106.831 58.6066 106.935 58.7163 107.062 58.7932C107.193 58.8702 107.331 58.9087 107.478 58.9087C107.628 58.9087 107.768 58.8721 107.899 58.799C108.03 58.722 108.134 58.6143 108.211 58.4758C108.288 58.3334 108.326 58.1641 108.326 57.9679ZM112.901 57.8986C112.901 58.014 112.894 58.1179 112.878 58.2103H110.541C110.56 58.4412 110.641 58.622 110.783 58.7528C110.926 58.8837 111.101 58.9491 111.308 58.9491C111.609 58.9491 111.822 58.8202 111.949 58.5624H112.821C112.728 58.8702 112.551 59.1241 112.29 59.3242C112.028 59.5205 111.707 59.6186 111.326 59.6186C111.018 59.6186 110.741 59.5513 110.495 59.4166C110.252 59.2781 110.062 59.0837 109.923 58.8336C109.789 58.5835 109.721 58.2949 109.721 57.9679C109.721 57.637 109.789 57.3464 109.923 57.0963C110.058 56.8462 110.246 56.6538 110.489 56.5192C110.731 56.3845 111.01 56.3171 111.326 56.3171C111.63 56.3171 111.901 56.3826 112.14 56.5134C112.382 56.6442 112.569 56.8308 112.699 57.0733C112.834 57.3118 112.901 57.5869 112.901 57.8986ZM112.065 57.6677C112.061 57.46 111.986 57.2945 111.839 57.1714C111.693 57.0444 111.514 56.9809 111.303 56.9809C111.103 56.9809 110.933 57.0425 110.795 57.1656C110.66 57.2849 110.577 57.4523 110.547 57.6677H112.065Z" fill="#030F41"/>
<g clip-path="url(#clip0_150_6)">
<path d="M21.604 1.03977C21.604 0.465523 22.0696 0 22.6438 0H47.0206C50.5298 0 53.3747 2.84484 53.3747 6.35413V27.9582C53.3747 31.4675 50.5298 34.3123 47.0206 34.3123H22.6438C22.0696 34.3123 21.604 33.8468 21.604 33.2725V1.03977Z" fill="#77C7DC"/>
<path d="M15.2499 10.0511C15.2499 6.60562 18.043 3.8125 21.4885 3.8125H43.3236C46.7691 3.8125 49.5622 6.60562 49.5622 10.0511V31.8862C49.5622 35.3317 46.7691 38.1248 43.3236 38.1248H21.4885C18.043 38.1248 15.2499 35.3317 15.2499 31.8862V10.0511Z" fill="#0D5C85"/>
<path d="M11.4374 15.1344C11.4374 11.6889 14.2305 8.89575 17.676 8.89575H39.5111C42.9566 8.89575 45.7497 11.6889 45.7497 15.1344V36.9695C45.7497 40.4149 42.9566 43.2081 39.5111 43.2081H17.676C14.2305 43.2081 11.4374 40.4149 11.4374 36.9695V15.1344Z" fill="#030F41"/>
<path fill-rule="evenodd" clip-rule="evenodd" d="M30.0389 14.9924C30.0389 14.3253 30.3039 13.6856 30.7756 13.2139C31.2472 12.7423 31.887 12.4773 32.554 12.4773C33.221 12.4773 33.8608 12.7423 34.3324 13.2139C34.8041 13.6856 35.0691 14.3253 35.0691 14.9924C35.0691 15.6594 34.8041 16.2991 34.3324 16.7708C33.8608 17.2425 33.221 17.5075 32.554 17.5075C31.887 17.5075 31.2472 17.2425 30.7756 16.7708C30.3039 16.2991 30.0389 15.6594 30.0389 14.9924ZM27.6064 19.1121C28.1184 18.6261 28.7974 18.3551 29.5033 18.3551C30.2092 18.3551 30.8882 18.6261 31.4002 19.1121L31.4111 19.123L32.554 20.2659L33.698 19.123L33.7089 19.1121C34.2207 18.6267 34.8993 18.3562 35.6047 18.3562C36.3101 18.3562 36.9886 18.6267 37.5005 19.1121C37.7545 19.3534 37.9568 19.6438 38.0951 19.9656C38.2334 20.2875 38.3049 20.6341 38.3052 20.9844C38.3055 21.3347 38.2346 21.6815 38.0969 22.0035C37.9591 22.3256 37.7573 22.6164 37.5038 22.8581L32.9321 27.3016C32.8307 27.4002 32.6948 27.4553 32.5534 27.4553C32.412 27.4553 32.2762 27.4002 32.1748 27.3016L27.6042 22.8581C27.3508 22.6165 27.1491 22.3259 27.0113 22.0039C26.8735 21.682 26.8026 21.3354 26.8028 20.9852C26.803 20.635 26.8743 20.2885 27.0125 19.9667C27.1506 19.6449 27.3527 19.3535 27.6064 19.1121Z" fill="white"/>
</g>
<g clip-path="url(#clip1_150_6)">
<path d="M0 6.35412C0 2.84483 2.84484 0 6.35413 0H17.7916C18.4934 0 19.0624 0.568968 19.0624 1.27083V58.458C19.0624 59.1599 18.4934 59.7288 17.7916 59.7288H6.35413C2.84485 59.7288 0 56.884 0 53.3747V6.35412Z" fill="#77C7DC"/>
<rect x="3.81247" y="3.8125" width="41.9373" height="49.5622" rx="7.62496" fill="#0D5C85"/>
<rect x="8.89578" y="8.89575" width="41.9373" height="36.854" rx="7.62496" fill="#030F41"/>
</g>
<defs>
<clipPath id="clip0_150_6">
<path d="M21.604 1.03977C21.604 0.465523 22.0696 0 22.6438 0H47.0206C50.5298 0 53.3747 2.84484 53.3747 6.35413V27.9582C53.3747 31.4675 50.5298 34.3123 47.0206 34.3123H22.6438C22.0696 34.3123 21.604 33.8468 21.604 33.2725V1.03977Z" fill="white"/>
</clipPath>
<clipPath id="clip1_150_6">
<path d="M0 6.35412C0 2.84483 2.84484 0 6.35413 0H17.7916C18.4934 0 19.0624 0.568968 19.0624 1.27083V58.458C19.0624 59.1599 18.4934 59.7288 17.7916 59.7288H6.35413C2.84485 59.7288 0 56.884 0 53.3747V6.35412Z" fill="white"/>
</clipPath>
</defs>
</svg>
