<svg width="306" height="58" viewBox="0 0 306 58" fill="none" xmlns="http://www.w3.org/2000/svg">
<path d="M74.104 31.768C74.104 33.0693 73.8053 34.264 73.208 35.352C72.6107 36.4187 71.6933 37.2827 70.456 37.944C69.2187 38.6053 67.6827 38.936 65.848 38.936H62.456V47H56.984V24.536H65.848C67.64 24.536 69.1547 24.8453 70.392 25.464C71.6293 26.0827 72.5573 26.936 73.176 28.024C73.7947 29.112 74.104 30.36 74.104 31.768ZM65.432 34.584C66.4773 34.584 67.256 34.3387 67.768 33.848C68.28 33.3573 68.536 32.664 68.536 31.768C68.536 30.872 68.28 30.1787 67.768 29.688C67.256 29.1973 66.4773 28.952 65.432 28.952H62.456V34.584H65.432ZM82.4248 32.12C83.0648 31.1387 83.8648 30.3707 84.8248 29.816C85.7848 29.24 86.8514 28.952 88.0248 28.952V34.744H86.5208C85.1554 34.744 84.1314 35.0427 83.4488 35.64C82.7661 36.216 82.4248 37.24 82.4248 38.712V47H76.9528V29.144H82.4248V32.12ZM98.7683 47.256C97.0189 47.256 95.4403 46.8827 94.0323 46.136C92.6456 45.3893 91.5469 44.3227 90.7363 42.936C89.9469 41.5493 89.5523 39.928 89.5523 38.072C89.5523 36.2373 89.9576 34.6267 90.7682 33.24C91.5789 31.832 92.6883 30.7547 94.0963 30.008C95.5043 29.2613 97.0829 28.888 98.8323 28.888C100.582 28.888 102.16 29.2613 103.568 30.008C104.976 30.7547 106.086 31.832 106.896 33.24C107.707 34.6267 108.112 36.2373 108.112 38.072C108.112 39.9067 107.696 41.528 106.864 42.936C106.054 44.3227 104.934 45.3893 103.504 46.136C102.096 46.8827 100.518 47.256 98.7683 47.256ZM98.7683 42.52C99.8136 42.52 100.699 42.136 101.424 41.368C102.171 40.6 102.544 39.5013 102.544 38.072C102.544 36.6427 102.182 35.544 101.456 34.776C100.752 34.008 99.8776 33.624 98.8323 33.624C97.7656 33.624 96.8803 34.008 96.1763 34.776C95.4723 35.5227 95.1203 36.6213 95.1203 38.072C95.1203 39.5013 95.4616 40.6 96.1443 41.368C96.8483 42.136 97.7229 42.52 98.7683 42.52ZM121.895 28.952C123.986 28.952 125.65 29.6347 126.887 31C128.146 32.344 128.775 34.2 128.775 36.568V47H123.335V37.304C123.335 36.1093 123.026 35.1813 122.407 34.52C121.789 33.8587 120.957 33.528 119.911 33.528C118.866 33.528 118.034 33.8587 117.415 34.52C116.797 35.1813 116.487 36.1093 116.487 37.304V47H111.015V29.144H116.487V31.512C117.042 30.7227 117.789 30.104 118.727 29.656C119.666 29.1867 120.722 28.952 121.895 28.952ZM142.53 42.36V47H139.746C137.762 47 136.215 46.52 135.106 45.56C133.996 44.5787 133.442 42.9893 133.442 40.792V33.688H131.266V29.144H133.442V24.792H138.914V29.144H142.498V33.688H138.914V40.856C138.914 41.3893 139.042 41.7733 139.298 42.008C139.554 42.2427 139.98 42.36 140.578 42.36H142.53ZM153.706 47.256C151.956 47.256 150.378 46.8827 148.97 46.136C147.583 45.3893 146.484 44.3227 145.674 42.936C144.884 41.5493 144.49 39.928 144.49 38.072C144.49 36.2373 144.895 34.6267 145.706 33.24C146.516 31.832 147.626 30.7547 149.034 30.008C150.442 29.2613 152.02 28.888 153.77 28.888C155.519 28.888 157.098 29.2613 158.506 30.008C159.914 30.7547 161.023 31.832 161.834 33.24C162.644 34.6267 163.05 36.2373 163.05 38.072C163.05 39.9067 162.634 41.528 161.802 42.936C160.991 44.3227 159.871 45.3893 158.442 46.136C157.034 46.8827 155.455 47.256 153.706 47.256ZM153.706 42.52C154.751 42.52 155.636 42.136 156.362 41.368C157.108 40.6 157.482 39.5013 157.482 38.072C157.482 36.6427 157.119 35.544 156.394 34.776C155.69 34.008 154.815 33.624 153.77 33.624C152.703 33.624 151.818 34.008 151.114 34.776C150.41 35.5227 150.058 36.6213 150.058 38.072C150.058 39.5013 150.399 40.6 151.082 41.368C151.786 42.136 152.66 42.52 153.706 42.52ZM184.19 47L179.518 38.52H178.206V47H172.734V24.536H181.918C183.689 24.536 185.193 24.8453 186.43 25.464C187.689 26.0827 188.627 26.936 189.246 28.024C189.865 29.0907 190.174 30.2853 190.174 31.608C190.174 33.1013 189.747 34.4347 188.894 35.608C188.062 36.7813 186.825 37.6133 185.182 38.104L190.366 47H184.19ZM178.206 34.648H181.598C182.601 34.648 183.347 34.4027 183.838 33.912C184.35 33.4213 184.606 32.728 184.606 31.832C184.606 30.9787 184.35 30.3067 183.838 29.816C183.347 29.3253 182.601 29.08 181.598 29.08H178.206V34.648ZM210.441 37.784C210.441 38.296 210.409 38.8293 210.345 39.384H197.961C198.046 40.4933 198.398 41.3467 199.017 41.944C199.657 42.52 200.436 42.808 201.353 42.808C202.718 42.808 203.668 42.232 204.201 41.08H210.025C209.726 42.2533 209.182 43.3093 208.393 44.248C207.625 45.1867 206.654 45.9227 205.481 46.456C204.308 46.9893 202.996 47.256 201.545 47.256C199.796 47.256 198.238 46.8827 196.873 46.136C195.508 45.3893 194.441 44.3227 193.673 42.936C192.905 41.5493 192.521 39.928 192.521 38.072C192.521 36.216 192.894 34.5947 193.641 33.208C194.409 31.8213 195.476 30.7547 196.841 30.008C198.206 29.2613 199.774 28.888 201.545 28.888C203.273 28.888 204.809 29.2507 206.153 29.976C207.497 30.7013 208.542 31.736 209.289 33.08C210.057 34.424 210.441 35.992 210.441 37.784ZM204.841 36.344C204.841 35.4053 204.521 34.6587 203.881 34.104C203.241 33.5493 202.441 33.272 201.481 33.272C200.564 33.272 199.785 33.5387 199.145 34.072C198.526 34.6053 198.142 35.3627 197.993 36.344H204.841ZM212.24 38.072C212.24 36.216 212.613 34.5947 213.36 33.208C214.128 31.8213 215.184 30.7547 216.528 30.008C217.893 29.2613 219.45 28.888 221.2 28.888C223.44 28.888 225.306 29.4747 226.8 30.648C228.314 31.8213 229.306 33.4747 229.776 35.608H223.952C223.461 34.2427 222.512 33.56 221.104 33.56C220.101 33.56 219.301 33.9547 218.704 34.744C218.106 35.512 217.808 36.6213 217.808 38.072C217.808 39.5227 218.106 40.6427 218.704 41.432C219.301 42.2 220.101 42.584 221.104 42.584C222.512 42.584 223.461 41.9013 223.952 40.536H229.776C229.306 42.6267 228.314 44.2693 226.8 45.464C225.285 46.6587 223.418 47.256 221.2 47.256C219.45 47.256 217.893 46.8827 216.528 46.136C215.184 45.3893 214.128 44.3227 213.36 42.936C212.613 41.5493 212.24 39.928 212.24 38.072ZM235.455 27.288C234.495 27.288 233.705 27.0107 233.087 26.456C232.489 25.88 232.191 25.176 232.191 24.344C232.191 23.4907 232.489 22.7867 233.087 22.232C233.705 21.656 234.495 21.368 235.455 21.368C236.393 21.368 237.161 21.656 237.759 22.232C238.377 22.7867 238.687 23.4907 238.687 24.344C238.687 25.176 238.377 25.88 237.759 26.456C237.161 27.0107 236.393 27.288 235.455 27.288ZM238.175 29.144V47H232.703V29.144H238.175ZM251.1 33.688H248.156V47H242.684V33.688H240.7V29.144H242.684V28.632C242.684 26.4347 243.314 24.7707 244.572 23.64C245.831 22.488 247.676 21.912 250.108 21.912C250.514 21.912 250.812 21.9227 251.004 21.944V26.584C249.959 26.52 249.223 26.6693 248.796 27.032C248.37 27.3947 248.156 28.0453 248.156 28.984V29.144H251.1V33.688ZM270.503 37.784C270.503 38.296 270.472 38.8293 270.408 39.384H258.024C258.109 40.4933 258.461 41.3467 259.08 41.944C259.72 42.52 260.498 42.808 261.416 42.808C262.781 42.808 263.73 42.232 264.264 41.08H270.088C269.789 42.2533 269.245 43.3093 268.456 44.248C267.688 45.1867 266.717 45.9227 265.544 46.456C264.37 46.9893 263.058 47.256 261.608 47.256C259.858 47.256 258.301 46.8827 256.936 46.136C255.57 45.3893 254.504 44.3227 253.736 42.936C252.968 41.5493 252.584 39.928 252.584 38.072C252.584 36.216 252.957 34.5947 253.704 33.208C254.472 31.8213 255.538 30.7547 256.904 30.008C258.269 29.2613 259.837 28.888 261.608 28.888C263.336 28.888 264.872 29.2507 266.216 29.976C267.56 30.7013 268.605 31.736 269.352 33.08C270.12 34.424 270.503 35.992 270.503 37.784ZM264.904 36.344C264.904 35.4053 264.584 34.6587 263.944 34.104C263.304 33.5493 262.504 33.272 261.544 33.272C260.626 33.272 259.848 33.5387 259.208 34.072C258.589 34.6053 258.205 35.3627 258.056 36.344H264.904Z" fill="white"/>
<path fill-rule="evenodd" clip-rule="evenodd" d="M12.6604 9.73926C12.6604 7.15625 13.6971 4.67903 15.5423 2.85256C17.3876 1.0261 19.8903 0 22.4999 0C25.1096 0 27.6123 1.0261 29.4576 2.85256C31.3028 4.67903 32.3395 7.15625 32.3395 9.73926C32.3395 12.3223 31.3028 14.7995 29.4576 16.626C27.6123 18.4524 25.1096 19.4785 22.4999 19.4785C19.8903 19.4785 17.3876 18.4524 15.5423 16.626C13.6971 14.7995 12.6604 12.3223 12.6604 9.73926ZM3.14388 25.6923C5.14684 23.8103 7.80323 22.761 10.565 22.761C13.3267 22.761 15.9831 23.8103 17.9861 25.6923L18.0286 25.7344L22.4999 30.1602L26.9756 25.7344L27.0181 25.6923C29.0206 23.8127 31.6752 22.765 34.4349 22.765C37.1946 22.765 39.8492 23.8127 41.8518 25.6923C42.8454 26.6267 43.6368 27.7511 44.1779 28.9975C44.7191 30.2438 44.9988 31.586 45 32.9425C45.0012 34.2991 44.7239 35.6417 44.1849 36.889C43.6459 38.1362 42.8565 39.262 41.8645 40.1981L23.9791 57.4049C23.5824 57.7865 23.051 58 22.4978 58C21.9446 58 21.4132 57.7865 21.0166 57.4049L3.13538 40.1981C2.14382 39.2624 1.35463 38.137 0.815667 36.8903C0.276705 35.6436 -0.000793195 34.3016 1.70292e-06 32.9455C0.000796601 31.5895 0.279869 30.2477 0.820291 29.0016C1.36071 27.7556 2.15122 26.6269 3.14388 25.6923Z" fill="white"/>
</svg>
