<svg width="30" height="39" viewBox="0 0 30 39" fill="none" xmlns="http://www.w3.org/2000/svg">
<path fill-rule="evenodd" clip-rule="evenodd" d="M8.24773 6.43118C8.24773 4.72553 8.92307 3.08973 10.1252 1.88365C11.3273 0.677569 12.9577 0 14.6578 0C16.3578 0 17.9883 0.677569 19.1904 1.88365C20.3925 3.08973 21.0678 4.72553 21.0678 6.43118C21.0678 8.13684 20.3925 9.77264 19.1904 10.9787C17.9883 12.1848 16.3578 12.8624 14.6578 12.8624C12.9577 12.8624 11.3273 12.1848 10.1252 10.9787C8.92307 9.77264 8.24773 8.13684 8.24773 6.43118ZM2.04811 16.9655C3.35295 15.7228 5.08348 15.0299 6.88265 15.0299C8.68181 15.0299 10.4123 15.7228 11.7172 16.9655L11.7449 16.9933L14.6578 19.9158L17.5735 16.9933L17.6012 16.9655C18.9057 15.7244 20.6351 15.0325 22.4329 15.0325C24.2308 15.0325 25.9601 15.7244 27.2647 16.9655C27.912 17.5825 28.4276 18.3251 28.7801 19.1481C29.1327 19.9711 29.3149 20.8573 29.3156 21.7531C29.3164 22.6489 29.1358 23.5355 28.7846 24.3591C28.4335 25.1827 27.9192 25.9261 27.273 26.5443L15.6214 37.9065C15.363 38.1585 15.0168 38.2995 14.6564 38.2995C14.296 38.2995 13.9499 38.1585 13.6914 37.9065L2.04257 26.5443C1.39661 25.9264 0.882484 25.1833 0.531373 24.36C0.180262 23.5368 -0.000516734 22.6505 1.10938e-06 21.7551C0.000518952 20.8597 0.182323 19.9737 0.534386 19.1508C0.886449 18.328 1.40143 17.5827 2.04811 16.9655Z" fill="#77C7DC"/>
<path fill-rule="evenodd" clip-rule="evenodd" d="M8.24773 6.43118C8.24773 4.72553 8.92307 3.08973 10.1252 1.88365C11.3273 0.677569 12.9577 0 14.6578 0C16.3578 0 17.9883 0.677569 19.1904 1.88365C20.3925 3.08973 21.0678 4.72553 21.0678 6.43118C21.0678 8.13684 20.3925 9.77264 19.1904 10.9787C17.9883 12.1848 16.3578 12.8624 14.6578 12.8624C12.9577 12.8624 11.3273 12.1848 10.1252 10.9787C8.92307 9.77264 8.24773 8.13684 8.24773 6.43118ZM2.04811 16.9655C3.35295 15.7228 5.08348 15.0299 6.88265 15.0299C8.68181 15.0299 10.4123 15.7228 11.7172 16.9655L11.7449 16.9933L14.6578 19.9158L17.5735 16.9933L17.6012 16.9655C18.9057 15.7244 20.6351 15.0325 22.4329 15.0325C24.2308 15.0325 25.9601 15.7244 27.2647 16.9655C27.912 17.5825 28.4276 18.3251 28.7801 19.1481C29.1327 19.9711 29.3149 20.8573 29.3156 21.7531C29.3164 22.6489 29.1358 23.5355 28.7846 24.3591C28.4335 25.1827 27.9192 25.9261 27.273 26.5443L15.6214 37.9065C15.363 38.1585 15.0168 38.2995 14.6564 38.2995C14.296 38.2995 13.9499 38.1585 13.6914 37.9065L2.04257 26.5443C1.39661 25.9264 0.882484 25.1833 0.531373 24.36C0.180262 23.5368 -0.000516734 22.6505 1.10938e-06 21.7551C0.000518952 20.8597 0.182323 19.9737 0.534386 19.1508C0.886449 18.328 1.40143 17.5827 2.04811 16.9655Z" fill="#77C7DC"/>
</svg>
