<svg width="54" height="60" viewBox="0 0 54 60" fill="none" xmlns="http://www.w3.org/2000/svg">
<g clip-path="url(#clip0_150_10)">
<path d="M21.604 1.03977C21.604 0.465523 22.0696 0 22.6438 0H47.0206C50.5298 0 53.3747 2.84484 53.3747 6.35413V27.9582C53.3747 31.4675 50.5298 34.3123 47.0206 34.3123H22.6438C22.0696 34.3123 21.604 33.8468 21.604 33.2725V1.03977Z" fill="#77C7DC"/>
<path d="M15.2499 10.0511C15.2499 6.60562 18.043 3.8125 21.4885 3.8125H43.3236C46.7691 3.8125 49.5622 6.60562 49.5622 10.0511V31.8862C49.5622 35.3317 46.7691 38.1248 43.3236 38.1248H21.4885C18.043 38.1248 15.2499 35.3317 15.2499 31.8862V10.0511Z" fill="#0D5C85"/>
<path d="M11.4374 15.1344C11.4374 11.6889 14.2305 8.89575 17.676 8.89575H39.5111C42.9566 8.89575 45.7497 11.6889 45.7497 15.1344V36.9695C45.7497 40.4149 42.9566 43.2081 39.5111 43.2081H17.676C14.2305 43.2081 11.4374 40.4149 11.4374 36.9695V15.1344Z" fill="#030F41"/>
<path fill-rule="evenodd" clip-rule="evenodd" d="M30.0389 14.9924C30.0389 14.3253 30.3039 13.6856 30.7756 13.2139C31.2472 12.7423 31.887 12.4773 32.554 12.4773C33.221 12.4773 33.8608 12.7423 34.3324 13.2139C34.8041 13.6856 35.0691 14.3253 35.0691 14.9924C35.0691 15.6594 34.8041 16.2991 34.3324 16.7708C33.8608 17.2425 33.221 17.5075 32.554 17.5075C31.887 17.5075 31.2472 17.2425 30.7756 16.7708C30.3039 16.2991 30.0389 15.6594 30.0389 14.9924ZM27.6064 19.1121C28.1184 18.6261 28.7974 18.3551 29.5033 18.3551C30.2092 18.3551 30.8882 18.6261 31.4002 19.1121L31.4111 19.123L32.554 20.2659L33.698 19.123L33.7089 19.1121C34.2207 18.6267 34.8993 18.3562 35.6047 18.3562C36.3101 18.3562 36.9886 18.6267 37.5005 19.1121C37.7545 19.3534 37.9568 19.6438 38.0951 19.9656C38.2334 20.2875 38.3049 20.6341 38.3052 20.9844C38.3055 21.3347 38.2346 21.6815 38.0969 22.0035C37.9591 22.3256 37.7573 22.6164 37.5038 22.8581L32.9321 27.3016C32.8307 27.4002 32.6948 27.4553 32.5534 27.4553C32.412 27.4553 32.2762 27.4002 32.1748 27.3016L27.6042 22.8581C27.3508 22.6165 27.1491 22.3259 27.0113 22.0039C26.8735 21.682 26.8026 21.3354 26.8028 20.9852C26.803 20.635 26.8743 20.2885 27.0125 19.9667C27.1506 19.6449 27.3527 19.3535 27.6064 19.1121Z" fill="white"/>
</g>
<g clip-path="url(#clip1_150_10)">
<path d="M0 6.35412C0 2.84483 2.84484 0 6.35413 0H17.7916C18.4934 0 19.0624 0.568968 19.0624 1.27083V58.458C19.0624 59.1599 18.4934 59.7288 17.7916 59.7288H6.35413C2.84485 59.7288 0 56.884 0 53.3747V6.35412Z" fill="#77C7DC"/>
<rect x="3.81247" y="3.8125" width="41.9373" height="49.5622" rx="7.62496" fill="#0D5C85"/>
<rect x="8.89578" y="8.89575" width="41.9373" height="36.854" rx="7.62496" fill="#030F41"/>
</g>
<defs>
<clipPath id="clip0_150_10">
<path d="M21.604 1.03977C21.604 0.465523 22.0696 0 22.6438 0H47.0206C50.5298 0 53.3747 2.84484 53.3747 6.35413V27.9582C53.3747 31.4675 50.5298 34.3123 47.0206 34.3123H22.6438C22.0696 34.3123 21.604 33.8468 21.604 33.2725V1.03977Z" fill="white"/>
</clipPath>
<clipPath id="clip1_150_10">
<path d="M0 6.35412C0 2.84483 2.84484 0 6.35413 0H17.7916C18.4934 0 19.0624 0.568968 19.0624 1.27083V58.458C19.0624 59.1599 18.4934 59.7288 17.7916 59.7288H6.35413C2.84485 59.7288 0 56.884 0 53.3747V6.35412Z" fill="white"/>
</clipPath>
</defs>
</svg>
