<svg width="143" height="36" viewBox="0 0 143 36" fill="none" xmlns="http://www.w3.org/2000/svg">
<path d="M45.2007 16.6173C45.2007 17.2159 45.0633 17.7654 44.7885 18.2659C44.5138 18.7565 44.0918 19.154 43.5227 19.4582C42.9535 19.7624 42.247 19.9145 41.4031 19.9145H39.8429V23.6237H37.3259V13.2908H41.4031C42.2274 13.2908 42.9241 13.4331 43.4932 13.7176C44.0624 14.0022 44.4893 14.3947 44.7738 14.8952C45.0584 15.3956 45.2007 15.9697 45.2007 16.6173ZM41.2118 17.9126C41.6926 17.9126 42.0508 17.7998 42.2863 17.5741C42.5218 17.3484 42.6395 17.0295 42.6395 16.6173C42.6395 16.2052 42.5218 15.8863 42.2863 15.6606C42.0508 15.4349 41.6926 15.322 41.2118 15.322H39.8429V17.9126H41.2118ZM49.028 16.7792C49.3224 16.3279 49.6904 15.9746 50.132 15.7195C50.5736 15.4545 51.0642 15.322 51.6039 15.322V17.9862H50.9121C50.2841 17.9862 49.8131 18.1236 49.4991 18.3984C49.1851 18.6633 49.028 19.1343 49.028 19.8114V23.6237H46.511V15.4103H49.028V16.7792ZM56.5457 23.7415C55.741 23.7415 55.0149 23.5697 54.3672 23.2263C53.7294 22.8828 53.224 22.3922 52.8512 21.7544C52.4881 21.1165 52.3065 20.3708 52.3065 19.517C52.3065 18.6731 52.493 17.9323 52.8659 17.2944C53.2388 16.6468 53.749 16.1512 54.3967 15.8078C55.0443 15.4643 55.7705 15.2926 56.5751 15.2926C57.3798 15.2926 58.1059 15.4643 58.7536 15.8078C59.4012 16.1512 59.9115 16.6468 60.2844 17.2944C60.6573 17.9323 60.8437 18.6731 60.8437 19.517C60.8437 20.3609 60.6524 21.1067 60.2697 21.7544C59.8968 22.3922 59.3816 22.8828 58.7242 23.2263C58.0765 23.5697 57.3504 23.7415 56.5457 23.7415ZM56.5457 21.563C57.0265 21.563 57.4338 21.3864 57.7674 21.0331C58.1109 20.6799 58.2826 20.1745 58.2826 19.517C58.2826 18.8596 58.1158 18.3542 57.7821 18.0009C57.4583 17.6477 57.056 17.4711 56.5751 17.4711C56.0845 17.4711 55.6773 17.6477 55.3534 18.0009C55.0296 18.3444 54.8677 18.8498 54.8677 19.517C54.8677 20.1745 55.0247 20.6799 55.3387 21.0331C55.6625 21.3864 56.0649 21.563 56.5457 21.563ZM67.1836 15.322C68.1453 15.322 68.9107 15.636 69.4798 16.2641C70.0588 16.8823 70.3483 17.736 70.3483 18.8252V23.6237H67.846V19.1638C67.846 18.6143 67.7037 18.1874 67.4191 17.8832C67.1346 17.579 66.7518 17.4269 66.271 17.4269C65.7902 17.4269 65.4075 17.579 65.1229 17.8832C64.8383 18.1874 64.6961 18.6143 64.6961 19.1638V23.6237H62.1791V15.4103H64.6961V16.4996C64.9512 16.1365 65.2946 15.8519 65.7264 15.6459C66.1582 15.43 66.6439 15.322 67.1836 15.322ZM76.675 21.4894V23.6237H75.3945C74.4819 23.6237 73.7704 23.4029 73.2602 22.9613C72.7499 22.51 72.4948 21.7789 72.4948 20.7682V17.5005H71.4938V15.4103H72.4948V13.4085H75.0118V15.4103H76.6603V17.5005H75.0118V20.7976C75.0118 21.0429 75.0706 21.2196 75.1884 21.3275C75.3061 21.4354 75.5024 21.4894 75.7772 21.4894H76.675ZM81.8157 23.7415C81.0111 23.7415 80.2849 23.5697 79.6373 23.2263C78.9995 22.8828 78.4941 22.3922 78.1212 21.7544C77.7581 21.1165 77.5766 20.3708 77.5766 19.517C77.5766 18.6731 77.763 17.9323 78.1359 17.2944C78.5088 16.6468 79.0191 16.1512 79.6667 15.8078C80.3144 15.4643 81.0405 15.2926 81.8452 15.2926C82.6498 15.2926 83.376 15.4643 84.0236 15.8078C84.6713 16.1512 85.1816 16.6468 85.5544 17.2944C85.9273 17.9323 86.1138 18.6731 86.1138 19.517C86.1138 20.3609 85.9224 21.1067 85.5397 21.7544C85.1668 22.3922 84.6517 22.8828 83.9942 23.2263C83.3466 23.5697 82.6204 23.7415 81.8157 23.7415ZM81.8157 21.563C82.2966 21.563 82.7038 21.3864 83.0374 21.0331C83.3809 20.6799 83.5526 20.1745 83.5526 19.517C83.5526 18.8596 83.3858 18.3542 83.0522 18.0009C82.7283 17.6477 82.326 17.4711 81.8452 17.4711C81.3545 17.4711 80.9473 17.6477 80.6235 18.0009C80.2997 18.3444 80.1377 18.8498 80.1377 19.517C80.1377 20.1745 80.2948 20.6799 80.6088 21.0331C80.9326 21.3864 81.3349 21.563 81.8157 21.563ZM95.8378 23.6237L93.6888 19.7231H93.0853V23.6237H90.5683V13.2908H94.7928C95.6072 13.2908 96.299 13.4331 96.8682 13.7176C97.4471 14.0022 97.8789 14.3947 98.1635 14.8952C98.4481 15.3858 98.5903 15.9353 98.5903 16.5437C98.5903 17.2306 98.3941 17.8439 98.0016 18.3836C97.6189 18.9234 97.0497 19.3061 96.2941 19.5318L98.6787 23.6237H95.8378ZM93.0853 17.9421H94.6456C95.1068 17.9421 95.4502 17.8292 95.6759 17.6035C95.9114 17.3778 96.0292 17.0589 96.0292 16.6468C96.0292 16.2543 95.9114 15.9452 95.6759 15.7195C95.4502 15.4938 95.1068 15.3809 94.6456 15.3809H93.0853V17.9421ZM107.913 19.3846C107.913 19.6201 107.898 19.8654 107.869 20.1205H102.172C102.211 20.6308 102.373 21.0233 102.658 21.2981C102.952 21.563 103.31 21.6955 103.732 21.6955C104.36 21.6955 104.797 21.4305 105.042 20.9006H107.721C107.584 21.4404 107.334 21.9261 106.971 22.3579C106.617 22.7896 106.171 23.1282 105.631 23.3735C105.092 23.6188 104.488 23.7415 103.821 23.7415C103.016 23.7415 102.3 23.5697 101.672 23.2263C101.044 22.8828 100.553 22.3922 100.2 21.7544C99.8465 21.1165 99.6699 20.3708 99.6699 19.517C99.6699 18.6633 99.8416 17.9175 100.185 17.2797C100.538 16.6419 101.029 16.1512 101.657 15.8078C102.285 15.4643 103.006 15.2926 103.821 15.2926C104.616 15.2926 105.322 15.4594 105.94 15.7931C106.559 16.1267 107.039 16.6026 107.383 17.2208C107.736 17.839 107.913 18.5603 107.913 19.3846ZM105.337 18.7222C105.337 18.2904 105.19 17.947 104.895 17.6918C104.601 17.4367 104.233 17.3091 103.791 17.3091C103.369 17.3091 103.011 17.4318 102.717 17.6771C102.432 17.9224 102.256 18.2708 102.187 18.7222H105.337ZM108.74 19.517C108.74 18.6633 108.912 17.9175 109.255 17.2797C109.609 16.6419 110.094 16.1512 110.712 15.8078C111.341 15.4643 112.057 15.2926 112.862 15.2926C113.892 15.2926 114.75 15.5624 115.437 16.1022C116.134 16.6419 116.59 17.4024 116.806 18.3836H114.127C113.902 17.7556 113.465 17.4416 112.817 17.4416C112.356 17.4416 111.988 17.6232 111.713 17.9862C111.439 18.3395 111.301 18.8498 111.301 19.517C111.301 20.1843 111.439 20.6995 111.713 21.0626C111.988 21.4158 112.356 21.5925 112.817 21.5925C113.465 21.5925 113.902 21.2784 114.127 20.6504H116.806C116.59 21.6121 116.134 22.3677 115.437 22.9172C114.741 23.4667 113.882 23.7415 112.862 23.7415C112.057 23.7415 111.341 23.5697 110.712 23.2263C110.094 22.8828 109.609 22.3922 109.255 21.7544C108.912 21.1165 108.74 20.3708 108.74 19.517ZM119.418 14.5566C118.977 14.5566 118.614 14.4291 118.329 14.1739C118.055 13.909 117.917 13.5852 117.917 13.2025C117.917 12.8099 118.055 12.4861 118.329 12.231C118.614 11.966 118.977 11.8336 119.418 11.8336C119.85 11.8336 120.204 11.966 120.478 12.231C120.763 12.4861 120.905 12.8099 120.905 13.2025C120.905 13.5852 120.763 13.909 120.478 14.1739C120.204 14.4291 119.85 14.5566 119.418 14.5566ZM120.67 15.4103V23.6237H118.153V15.4103H120.67ZM126.615 17.5005H125.261V23.6237H122.744V17.5005H121.831V15.4103H122.744V15.1748C122.744 14.1641 123.033 13.3987 123.612 12.8786C124.191 12.3487 125.04 12.0838 126.159 12.0838C126.345 12.0838 126.483 12.0887 126.571 12.0985V14.2328C126.09 14.2034 125.752 14.2721 125.555 14.4389C125.359 14.6057 125.261 14.905 125.261 15.3368V15.4103H126.615V17.5005ZM135.54 19.3846C135.54 19.6201 135.525 19.8654 135.496 20.1205H129.8C129.839 20.6308 130.001 21.0233 130.285 21.2981C130.58 21.563 130.938 21.6955 131.36 21.6955C131.988 21.6955 132.425 21.4305 132.67 20.9006H135.349C135.211 21.4404 134.961 21.9261 134.598 22.3579C134.245 22.7896 133.798 23.1282 133.259 23.3735C132.719 23.6188 132.115 23.7415 131.448 23.7415C130.644 23.7415 129.927 23.5697 129.299 23.2263C128.671 22.8828 128.181 22.3922 127.827 21.7544C127.474 21.1165 127.297 20.3708 127.297 19.517C127.297 18.6633 127.469 17.9175 127.813 17.2797C128.166 16.6419 128.656 16.1512 129.284 15.8078C129.912 15.4643 130.634 15.2926 131.448 15.2926C132.243 15.2926 132.95 15.4594 133.568 15.7931C134.186 16.1267 134.667 16.6026 135.01 17.2208C135.364 17.839 135.54 18.5603 135.54 19.3846ZM132.964 18.7222C132.964 18.2904 132.817 17.947 132.523 17.6918C132.228 17.4367 131.86 17.3091 131.419 17.3091C130.997 17.3091 130.639 17.4318 130.344 17.6771C130.06 17.9224 129.883 18.2708 129.814 18.7222H132.964Z" fill="#2B318A"/>
<path fill-rule="evenodd" clip-rule="evenodd" d="M8.26528 5.99426C8.26528 4.42513 8.88657 2.92027 9.99247 1.81073C11.0984 0.701184 12.5983 0.0778503 14.1623 0.0778503C15.7262 0.0778503 17.2262 0.701184 18.332 1.81073C19.4379 2.92027 20.0592 4.42513 20.0592 5.99426C20.0592 7.56339 19.4379 9.06825 18.332 10.1778C17.2262 11.2873 15.7262 11.9107 14.1623 11.9107C12.5983 11.9107 11.0984 11.2873 9.99247 10.1778C8.88657 9.06825 8.26528 7.56339 8.26528 5.99426ZM2.5619 15.6854C3.7623 14.5421 5.35432 13.9047 7.00947 13.9047C8.66462 13.9047 10.2566 14.5421 11.457 15.6854L11.4825 15.711L14.1623 18.3995L16.8446 15.711L16.87 15.6854C18.0702 14.5436 19.6611 13.9071 21.315 13.9071C22.969 13.9071 24.5599 14.5436 25.7601 15.6854C26.3555 16.253 26.8298 16.9361 27.1542 17.6932C27.4785 18.4503 27.6461 19.2657 27.6468 20.0898C27.6476 20.9138 27.4814 21.7295 27.1583 22.4872C26.8353 23.2448 26.3622 23.9288 25.7677 24.4974L15.0487 34.9501C14.811 35.182 14.4925 35.3117 14.161 35.3117C13.8295 35.3117 13.511 35.182 13.2733 34.9501L2.55681 24.4974C1.96256 23.929 1.48958 23.2453 1.16657 22.488C0.843568 21.7306 0.677259 20.9154 0.677735 20.0916C0.678212 19.2678 0.845464 18.4527 1.16935 17.6958C1.49323 16.9388 1.96699 16.2532 2.5619 15.6854Z" fill="#2B318A"/>
</svg>
