<svg width="38" height="36" viewBox="0 0 38 36" fill="none" xmlns="http://www.w3.org/2000/svg">
<path d="M36.4569 4.4997C34.9792 5.51292 33.3431 6.28787 31.6116 6.7947C30.6822 5.75597 29.4471 5.01974 28.0733 4.68559C26.6994 4.35144 25.2532 4.4355 23.9301 4.92638C22.607 5.41727 21.471 6.2913 20.6756 7.43028C19.8801 8.56925 19.4638 9.91821 19.4828 11.2947V12.7947C16.771 12.8631 14.0839 12.2784 11.6608 11.0929C9.2377 9.90732 7.15385 8.15766 5.59483 5.9997C5.59483 5.9997 -0.577586 19.4997 13.3103 25.4997C10.1324 27.5967 6.34656 28.6481 2.50862 28.4997C16.3966 35.9997 33.3707 28.4997 33.3707 11.2497C33.3693 10.8319 33.3279 10.4151 33.2472 10.0047C34.8221 8.49494 35.9335 6.58877 36.4569 4.4997Z" stroke="#2B318A" stroke-width="2" stroke-linecap="round" stroke-linejoin="round"/>
</svg>
