<svg width="64" height="64" viewBox="0 0 64 64" fill="none" xmlns="http://www.w3.org/2000/svg">
<path d="M51.4142 48.585C51.6 48.7708 51.7474 48.9914 51.8479 49.2342C51.9485 49.477 52.0003 49.7372 52.0003 50C52.0003 50.2628 51.9485 50.523 51.8479 50.7658C51.7474 51.0086 51.6 51.2292 51.4142 51.415C51.2283 51.6008 51.0077 51.7482 50.765 51.8488C50.5222 51.9494 50.262 52.0011 49.9992 52.0011C49.7364 52.0011 49.4762 51.9494 49.2334 51.8488C48.9906 51.7482 48.77 51.6008 48.5842 51.415L31.9992 34.8275L15.4142 51.415C15.0389 51.7903 14.5299 52.0011 13.9992 52.0011C13.4684 52.0011 12.9594 51.7903 12.5842 51.415C12.2089 51.0397 11.998 50.5307 11.998 50C11.998 49.4693 12.2089 48.9603 12.5842 48.585L29.1717 32L12.5842 15.415C12.2089 15.0397 11.998 14.5307 11.998 14C11.998 13.4693 12.2089 12.9603 12.5842 12.585C12.9594 12.2097 13.4684 11.9989 13.9992 11.9989C14.5299 11.9989 15.0389 12.2097 15.4142 12.585L31.9992 29.1725L48.5842 12.585C48.9594 12.2097 49.4684 11.9989 49.9992 11.9989C50.5299 11.9989 51.0389 12.2097 51.4142 12.585C51.7894 12.9603 52.0003 13.4693 52.0003 14C52.0003 14.5307 51.7894 15.0397 51.4142 15.415L34.8267 32L51.4142 48.585Z" fill="#4E57EA"/>
</svg>
