<svg width="60" height="60" viewBox="0 0 60 60" fill="none" xmlns="http://www.w3.org/2000/svg">
<path d="M53.8266 13.6734L46.3266 6.17345C46.1524 5.99912 45.9456 5.86082 45.718 5.76646C45.4904 5.6721 45.2464 5.62354 45 5.62354C44.7536 5.62354 44.5096 5.6721 44.282 5.76646C44.0544 5.86082 43.8476 5.99912 43.6734 6.17345L21.1734 28.6734C20.9994 28.8477 20.8613 29.0546 20.7672 29.2822C20.6731 29.5098 20.6248 29.7537 20.625 30V37.5C20.625 37.9973 20.8225 38.4742 21.1742 38.8258C21.5258 39.1775 22.0027 39.375 22.5 39.375H30C30.2463 39.3752 30.4902 39.3269 30.7178 39.2328C30.9455 39.1387 31.1523 39.0006 31.3266 38.8266L53.8266 16.3266C54.0009 16.1524 54.1392 15.9456 54.2336 15.718C54.3279 15.4904 54.3765 15.2464 54.3765 15C54.3765 14.7536 54.3279 14.5096 54.2336 14.282C54.1392 14.0544 54.0009 13.8476 53.8266 13.6734ZM29.2242 35.625H24.375V30.7758L39.375 15.7758L44.2242 20.625L29.2242 35.625ZM46.875 17.9742L42.0258 13.125L45 10.1508L49.8492 15L46.875 17.9742ZM52.5 30V48.75C52.5 49.7446 52.1049 50.6984 51.4017 51.4017C50.6984 52.1049 49.7446 52.5 48.75 52.5H11.25C10.2554 52.5 9.30161 52.1049 8.59835 51.4017C7.89509 50.6984 7.5 49.7446 7.5 48.75V11.25C7.5 10.2554 7.89509 9.30162 8.59835 8.59836C9.30161 7.8951 10.2554 7.50001 11.25 7.50001H30C30.4973 7.50001 30.9742 7.69755 31.3258 8.04919C31.6775 8.40082 31.875 8.87773 31.875 9.37501C31.875 9.87229 31.6775 10.3492 31.3258 10.7008C30.9742 11.0525 30.4973 11.25 30 11.25H11.25V48.75H48.75V30C48.75 29.5027 48.9475 29.0258 49.2992 28.6742C49.6508 28.3226 50.1277 28.125 50.625 28.125C51.1223 28.125 51.5992 28.3226 51.9508 28.6742C52.3025 29.0258 52.5 29.5027 52.5 30Z" fill="white"/>
</svg>
